SplineFontDB: 3.0
FontName: ZenJiaBopomo-Regular
FullName: ZenJia Bopomo Regular
FamilyName: ZenJia Bopomo
Weight: Regular
Copyright: Copyright (c) 2007, Google Corporation.\nCopyright (c) 2016, Cheng-Chia Tseng (pswo10680@gmail.com).\n\nThis Font Software is licensed under the Apache License, Version 2.
UComments: "2016-06-21: Created."
FontLog: "0.0.1+AAoA - combined with Droid Sans font."
Version: 0.0.1
ItalicAngle: 0
UnderlinePosition: -113
UnderlineWidth: 56
Ascent: 739
Descent: 261
InvalidEm: 0
LayerCount: 3
Layer: 0 0 "+gMxmbwAA" 1
Layer: 1 0 "+Uk1mbwAA" 0
Layer: 2 0 "+gMxmbwAA 2" 1
XUID: [1021 719 1078475452 12577425]
FSType: 8
OS2Version: 0
OS2_WeightWidthSlopeOnly: 0
OS2_UseTypoMetrics: 1
CreationTime: 1410702595
ModificationTime: 1466444578
PfmFamily: 33
TTFWeight: 400
TTFWidth: 5
LineGap: 0
VLineGap: 0
OS2TypoAscent: 1058
OS2TypoAOffset: 0
OS2TypoDescent: -286
OS2TypoDOffset: 0
OS2TypoLinegap: 0
OS2WinAscent: 1058
OS2WinAOffset: 0
OS2WinDescent: 286
OS2WinDOffset: 0
HheadAscent: 1058
HheadAOffset: 0
HheadDescent: -286
HheadDOffset: 0
OS2SubXSize: 650
OS2SubYSize: 700
OS2SubXOff: 138
OS2SubYOff: 140
OS2SupXSize: 650
OS2SupYSize: 700
OS2SupXOff: -474
OS2SupYOff: 480
OS2StrikeYSize: 49
OS2StrikeYPos: 258
OS2FamilyClass: 1282
OS2Vendor: 'PfEd'
OS2CodePages: 2004019f.00000000
MarkAttachClasses: 1
DEI: 91125
LangName: 1033 "" "" "" "" "" "" "" "" "" "" "" "" "" "This Font Software is licensed under the Apache License, Version 2." "http://www.apache.org/licenses/LICENSE-2.0" "" "" "" "" "The quick brown fox jumps over the +MQUxBjEH."
LangName: 1028 "Copyright (c) 2007, Google Corporation.+AAoA-Copyright (c) 2016, Cheng-Chia Tseng (pswo10680@gmail.com).+AAoACgAA-This Font Software is licensed under the Apache License, Version 2." "+l1xWCTEFMQYxBwAA" "Regular" "" "+l1xWCTEFMQYxBwAA" "Version 0.0.1"
Encoding: UnicodeBmp
Compacted: 1
UnicodeInterp: none
NameList: Adobe Glyph List
DisplaySize: -48
AntiAlias: 1
FitToEm: 1
WinInfo: 0 27 9
BeginPrivate: 0
EndPrivate

StartChar: a
Encoding: 97 97 0
Width: 530
GlyphClass: 2
Flags: W
LayerCount: 3
Fore
SplineSet
387 0 m 1
 369 74 l 1
 365 74 l 1
 354.333333333 59.3333333333 343.666666667 46.8333333333 333 36.5 c 128
 322.333333333 26.1666666667 310.666666667 17.5 298 10.5 c 128
 285.333333333 3.5 271.166666667 -1.66666666667 255.5 -5 c 128
 239.833333333 -8.33333333333 221.666666667 -10 201 -10 c 0
 178.333333333 -10 157.666666667 -6.83333333333 139 -0.5 c 128
 120.333333333 5.83333333333 104 15.6666666667 90 29 c 128
 76 42.3333333333 65.1666666667 59 57.5 79 c 128
 49.8333333333 99 46 122.666666667 46 150 c 0
 46 203.333333333 64.8333333333 244.333333333 102.5 273 c 128
 140.166666667 301.666666667 197.333333333 317.333333333 274 320 c 2
 364 323 l 1
 364 357 l 2
 364 379 361.666666667 397.333333333 357 412 c 128
 352.333333333 426.666666667 345.5 438.333333333 336.5 447 c 128
 327.5 455.666666667 316.333333333 462 303 466 c 128
 289.666666667 470 274.666666667 472 258 472 c 0
 230.666666667 472 205.333333333 468.166666667 182 460.5 c 128
 158.666666667 452.833333333 136.333333333 443.333333333 115 432 c 1
 84 499 l 1
 108 512.333333333 134.833333333 523.5 164.5 532.5 c 128
 194.166666667 541.5 225.333333333 546 258 546 c 0
 291.333333333 546 320 542.666666667 344 536 c 128
 368 529.333333333 388 518.666666667 404 504 c 128
 420 489.333333333 431.833333333 470.833333333 439.5 448.5 c 128
 447.166666667 426.166666667 451 399 451 367 c 2
 451 0 l 1
 387 0 l 1
224 62 m 0
 244 62 262.5 65.1666666667 279.5 71.5 c 128
 296.5 77.8333333333 311.166666667 87.1666666667 323.5 99.5 c 128
 335.833333333 111.833333333 345.5 127.5 352.5 146.5 c 128
 359.5 165.5 363 188 363 214 c 2
 363 262 l 1
 293 259 l 2
 263.666666667 257.666666667 239 254.333333333 219 249 c 128
 199 243.666666667 183.166666667 236.333333333 171.5 227 c 128
 159.833333333 217.666666667 151.333333333 206.5 146 193.5 c 128
 140.666666667 180.5 138 165.666666667 138 149 c 0
 138 119 145.833333333 97 161.5 83 c 128
 177.166666667 69 198 62 224 62 c 0
EndSplineSet
Validated: 524289
EndChar

StartChar: d
Encoding: 100 100 1
Width: 585
GlyphClass: 2
Flags: W
LayerCount: 3
Fore
SplineSet
416 72 m 1
 412 72 l 1
 404.666666667 60.6666666667 396.333333333 50 387 40 c 128
 377.666666667 30 366.666666667 21.3333333333 354 14 c 128
 341.333333333 6.66666666667 327.166666667 0.833333333333 311.5 -3.5 c 128
 295.833333333 -7.83333333333 278.333333333 -10 259 -10 c 0
 229 -10 201.333333333 -4.16666666667 176 7.5 c 128
 150.666666667 19.1666666667 129 36.6666666667 111 60 c 128
 93 83.3333333333 79.1666666667 112.333333333 69.5 147 c 128
 59.8333333333 181.666666667 55 221.666666667 55 267 c 0
 55 313 59.8333333333 353.333333333 69.5 388 c 128
 79.1666666667 422.666666667 93 451.666666667 111 475 c 128
 129 498.333333333 150.5 516 175.5 528 c 128
 200.5 540 228.333333333 546 259 546 c 0
 278.333333333 546 295.666666667 543.833333333 311 539.5 c 128
 326.333333333 535.166666667 340.333333333 529.5 353 522.5 c 128
 365.666666667 515.5 376.833333333 507.166666667 386.5 497.5 c 128
 396.166666667 487.833333333 404.666666667 478 412 468 c 1
 418 468 l 1
 417.333333333 479.333333333 416.333333333 490 415 500 c 0
 414 513 414 513 413 526 c 128
 412.333333333 534.666666667 412 541.666666667 412 547 c 2
 412 760 l 1
 501 760 l 1
 501 0 l 1
 429 0 l 1
 416 72 l 1
276 64 m 0
 300.666666667 64 321.5 67.6666666667 338.5 75 c 128
 355.5 82.3333333333 369.333333333 93.6666666667 380 109 c 128
 390.666666667 124.333333333 398.5 143.5 403.5 166.5 c 128
 408.5 189.5 411.333333333 216.333333333 412 247 c 2
 412 267 l 2
 412 299.666666667 409.833333333 328.833333333 405.5 354.5 c 128
 401.166666667 380.166666667 393.666666667 401.666666667 383 419 c 128
 372.333333333 436.333333333 358.166666667 449.5 340.5 458.5 c 128
 322.833333333 467.5 301 472 275 472 c 0
 231 472 198.666666667 454.333333333 178 419 c 128
 157.333333333 383.666666667 147 332.666666667 147 266 c 0
 147 198 157.333333333 147.333333333 178 114 c 128
 198.666666667 80.6666666667 231.333333333 64 276 64 c 0
EndSplineSet
Validated: 524289
EndChar

StartChar: e
Encoding: 101 101 2
Width: 535
Flags: HMW
LayerCount: 3
Fore
SplineSet
284.574 421.875 m 0
 281.219422399 422.11315485 277.85131446 422.233424871 274.48108976 422.233424871 c 0
 250.93535047 422.233424871 227.28629255 416.363070316 207.426 403.809 c 0
 188.4 391.783 173.476 373.921 162.992 354.004 c 0
 148.503 326.477 141.485 295.265 141.02 264.16 c 1
 392.973 264.16 l 1
 393.060111657 267.326400243 393.105226017 270.495082947 393.105226017 273.664059451 c 0
 393.105226017 290.93970367 391.764483879 308.224079228 388.578 325.195 c 0
 384.662 346.055 377.426 366.729 364.164 383.301 c 0
 354.681 395.15 342.299 404.597 328.524 410.971 c 0
 314.751 417.344 299.713 420.8 284.574 421.875 c 0
  Spiro
    284.574 421.875 o
    207.426 403.809 o
    162.992 354.004 o
    141.02 264.16 v
    392.973 264.16 v
    388.578 325.195 o
    364.164 383.301 o
    0 0 z
  EndSpiro
287.992 491.699 m 0
 289.206792477 491.717585213 290.422033619 491.726954744 291.637499657 491.726954744 c 0
 314.35829809 491.726954744 337.157681891 488.452949348 358.574 480.9 c 0
 381.139 472.943 402.02 459.999 418.59 442.74 c 0
 444.426 415.83 458.568 379.48 464.949 342.727 c 0
 470.198 312.496 470.609 281.659 470.609 250.977 c 2
 470.609 203.613 l 1
 139.066 203.613 l 1
 141.374 171.953 153.877 141.154 174.111 116.696 c 0
 192.351 94.6514 216.659 77.8633 243.364 67.5928 c 0
 267.318 58.3809 293.09 54.3496 318.754 54.1992 c 0
 319.283306457 54.1960655595 319.812609345 54.1945082445 320.341902784 54.1945082445 c 0
 332.342301183 54.1945082445 344.33784252 54.9950330261 356.26 56.3652 c 0
 368.777 57.8037 381.221 59.8652 393.553 62.4531 c 0
 405.855 65.0352 418.046 68.1504 430.082 71.7773 c 1
 444.242 17.0898 l 1
 427.678 11.3887 410.824 6.52441 393.766 2.54395 c 0
 376.708 -1.43652 359.44 -4.52734 342.049 -6.60742 c 0
 324.695825122 -8.68271395955 307.248533907 -9.76566278515 289.754513886 -9.76566278515 c 0
 248.489640485 -9.76566278515 206.460177532 -3.73924945789 169.533 14.6719 c 0
 135.367 31.7051 106.91 59.6895 88.7891 93.291 c 0
 67.0752836321 133.554557051 59.4517280863 178.882593329 59.4517280863 225.767806214 c 0
 59.4517280863 280.941311714 70.3415211479 337.0531537 98.3594 384.519 c 0
 119.482 420.303 150.949 449.998 188.268 468.275 c 0
 219.178 483.416 253.577 491.172 287.992 491.699 c 0
  Spiro
    287.992 491.699 o
    418.589 442.74 o
    464.95 342.726 o
    470.609 250.977 [
    470.609 203.613 v
    139.066 203.613 v
    174.112 116.696 o
    243.364 67.5928 o
    318.754 54.1992 o
    356.26 56.3652 o
    393.552 62.4536 o
    430.082 71.7773 v
    444.242 17.0898 v
    393.765 2.54377 o
    342.049 -6.60708 o
    289.945 -9.76562 o
    169.533 14.6714 o
    88.7891 93.2905 o
    59.4766 221.191 o
    98.359 384.519 o
    188.268 468.276 o
    0 0 z
  EndSpiro
EndSplineSet
Validated: 524289
EndChar

StartChar: h
Encoding: 104 104 3
Width: 588
GlyphClass: 2
Flags: W
LayerCount: 3
Fore
SplineSet
420 0 m 1
 420 345 l 2
 420 387 411.5 418.666666667 394.5 440 c 128
 377.5 461.333333333 350.666666667 472 314 472 c 0
 287.333333333 472 265.166666667 467.833333333 247.5 459.5 c 128
 229.833333333 451.166666667 215.5 438.666666667 204.5 422 c 128
 193.5 405.333333333 185.666666667 385 181 361 c 128
 176.333333333 337 174 309.333333333 174 278 c 2
 174 0 l 1
 85 0 l 1
 85 760 l 1
 174 760 l 1
 174 534 l 1
 170 464 l 1
 175 464 l 1
 183 478 192.666666667 490.166666667 204 500.5 c 128
 215.333333333 510.833333333 227.666666667 519.333333333 241 526 c 128
 254.333333333 532.666666667 268.5 537.666666667 283.5 541 c 128
 298.5 544.333333333 313.666666667 546 329 546 c 0
 388.333333333 546 433.166666667 530.5 463.5 499.5 c 128
 493.833333333 468.5 509 418.666666667 509 350 c 2
 509 0 l 1
 420 0 l 1
EndSplineSet
Validated: 524289
EndChar

StartChar: i
Encoding: 105 105 4
Width: 258
GlyphClass: 2
Flags: W
LayerCount: 3
Fore
SplineSet
174 0 m 1
 85 0 l 1
 85 536 l 1
 174 536 l 1
 174 0 l 1
78 681 m 256
 78 700.333333333 83 714.5 93 723.5 c 128
 103 732.5 115.333333333 737 130 737 c 0
 137.333333333 737 144.166666667 735.833333333 150.5 733.5 c 128
 156.833333333 731.166666667 162.333333333 727.833333333 167 723.5 c 128
 171.666666667 719.166666667 175.333333333 713.5 178 706.5 c 128
 180.666666667 699.5 182 691 182 681 c 0
 182 662.333333333 176.833333333 648.333333333 166.5 639 c 128
 156.166666667 629.666666667 144 625 130 625 c 0
 115.333333333 625 103 629.5 93 638.5 c 128
 83 647.5 78 661.666666667 78 681 c 256
EndSplineSet
Validated: 524289
EndChar

StartChar: n
Encoding: 110 110 5
Width: 588
GlyphClass: 2
Flags: W
LayerCount: 3
Fore
SplineSet
420 0 m 1
 420 345 l 2
 420 387 411.5 418.666666667 394.5 440 c 128
 377.5 461.333333333 350.666666667 472 314 472 c 0
 287.333333333 472 265.166666667 467.833333333 247.5 459.5 c 128
 229.833333333 451.166666667 215.5 438.666666667 204.5 422 c 128
 193.5 405.333333333 185.666666667 385 181 361 c 128
 176.333333333 337 174 309.333333333 174 278 c 2
 174 0 l 1
 85 0 l 1
 85 536 l 1
 157 536 l 1
 170 464 l 1
 175 464 l 1
 183 478 192.666666667 490.166666667 204 500.5 c 128
 215.333333333 510.833333333 227.666666667 519.333333333 241 526 c 128
 254.333333333 532.666666667 268.5 537.666666667 283.5 541 c 128
 298.5 544.333333333 313.666666667 546 329 546 c 0
 388.333333333 546 433.166666667 530.5 463.5 499.5 c 128
 493.833333333 468.5 509 418.666666667 509 350 c 2
 509 0 l 1
 420 0 l 1
EndSplineSet
Validated: 524289
EndChar

StartChar: o
Encoding: 111 111 6
Width: 577
GlyphClass: 2
Flags: W
LayerCount: 3
Fore
SplineSet
522 269 m 0
 522 224.333333333 516.5 184.666666667 505.5 150 c 128
 494.5 115.333333333 478.833333333 86.1666666667 458.5 62.5 c 128
 438.166666667 38.8333333333 413.5 20.8333333333 384.5 8.5 c 128
 355.5 -3.83333333333 323 -10 287 -10 c 0
 253.666666667 -10 222.833333333 -3.83333333333 194.5 8.5 c 128
 166.166666667 20.8333333333 141.666666667 38.8333333333 121 62.5 c 128
 100.333333333 86.1666666667 84.1666666667 115.333333333 72.5 150 c 128
 60.8333333333 184.666666667 55 224.333333333 55 269 c 0
 55 313 60.5 352.166666667 71.5 386.5 c 128
 82.5 420.833333333 98 449.833333333 118 473.5 c 128
 138 497.166666667 162.666666667 515.166666667 192 527.5 c 128
 221.333333333 539.833333333 254 546 290 546 c 0
 323.333333333 546 354.166666667 539.833333333 382.5 527.5 c 128
 410.833333333 515.166666667 435.333333333 497.166666667 456 473.5 c 128
 476.666666667 449.833333333 492.833333333 420.833333333 504.5 386.5 c 128
 516.166666667 352.166666667 522 313 522 269 c 0
147 269 m 256
 147 201 158.166666667 149.833333333 180.5 115.5 c 128
 202.833333333 81.1666666667 239 64 289 64 c 256
 339 64 375 81.1666666667 397 115.5 c 128
 419 149.833333333 430 201 430 269 c 256
 430 337 418.833333333 387.833333333 396.5 421.5 c 128
 374.166666667 455.166666667 338 472 288 472 c 256
 238 472 202 455.166666667 180 421.5 c 128
 158 387.833333333 147 337 147 269 c 256
EndSplineSet
Validated: 524289
EndChar

StartChar: s
Encoding: 115 115 7
Width: 451
GlyphClass: 2
Flags: W
LayerCount: 3
Fore
SplineSet
406 147 m 0
 406 121 401.166666667 98.1666666667 391.5 78.5 c 128
 381.833333333 58.8333333333 368.166666667 42.5 350.5 29.5 c 128
 332.833333333 16.5 311.5 6.66666666667 286.5 0 c 128
 261.5 -6.66666666667 233.333333333 -10 202 -10 c 0
 166.666666667 -10 136.333333333 -7.16666666667 111 -1.5 c 128
 85.6666666667 4.16666666667 63.3333333333 12.6666666667 44 24 c 1
 44 105 l 1
 54 99.6666666667 65.1666666667 94.5 77.5 89.5 c 128
 89.8333333333 84.5 102.833333333 80 116.5 76 c 128
 130.166666667 72 144.333333333 68.8333333333 159 66.5 c 128
 173.666666667 64.1666666667 188 63 202 63 c 0
 223.333333333 63 241.333333333 64.8333333333 256 68.5 c 128
 270.666666667 72.1666666667 282.666666667 77.3333333333 292 84 c 128
 301.333333333 90.6666666667 308.166666667 98.8333333333 312.5 108.5 c 128
 316.833333333 118.166666667 319 128.666666667 319 140 c 0
 319 150 317.333333333 159.166666667 314 167.5 c 128
 310.666666667 175.833333333 304.666666667 184 296 192 c 128
 287.333333333 200 275.5 208 260.5 216 c 128
 245.5 224 226.333333333 233 203 243 c 256
 179.666666667 253 158.666666667 263 140 273 c 128
 121.333333333 283 105.5 294 92.5 306 c 128
 79.5 318 69.5 331.833333333 62.5 347.5 c 128
 55.5 363.166666667 52 382 52 404 c 0
 52 426.666666667 56.5 446.833333333 65.5 464.5 c 128
 74.5 482.166666667 87 497 103 509 c 128
 119 521 138.5 530.166666667 161.5 536.5 c 128
 184.5 542.833333333 210 546 238 546 c 0
 269.333333333 546 298.166666667 542.5 324.5 535.5 c 128
 350.833333333 528.5 375.666666667 519.666666667 399 509 c 1
 368 437 l 1
 346.666666667 446.333333333 325 454.5 303 461.5 c 128
 281 468.5 258.333333333 472 235 472 c 0
 201.666666667 472 177 466.5 161 455.5 c 128
 145 444.5 137 429 137 409 c 0
 137 397.666666667 138.833333333 387.833333333 142.5 379.5 c 128
 146.166666667 371.166666667 152.666666667 363.166666667 162 355.5 c 128
 171.333333333 347.833333333 183.666666667 340.166666667 199 332.5 c 128
 214.333333333 324.833333333 233.333333333 316.333333333 256 307 c 0
 279.333333333 297 300.166666667 287.166666667 318.5 277.5 c 128
 336.833333333 267.833333333 352.5 257 365.5 245 c 128
 378.5 233 388.5 219.166666667 395.5 203.5 c 128
 402.5 187.833333333 406 169 406 147 c 0
EndSplineSet
Validated: 524289
EndChar

StartChar: b
Encoding: 98 98 8
Width: 585
GlyphClass: 2
Flags: W
LayerCount: 3
Fore
SplineSet
327 546 m 0
 357.666666667 546 385.5 540.166666667 410.5 528.5 c 128
 435.5 516.833333333 456.833333333 499.333333333 474.5 476 c 128
 492.166666667 452.666666667 506 423.666666667 516 389 c 128
 526 354.333333333 531 314.333333333 531 269 c 0
 531 223 526 182.666666667 516 148 c 128
 506 113.333333333 492.166666667 84.3333333333 474.5 61 c 128
 456.833333333 37.6666666667 435.5 20 410.5 8 c 128
 385.5 -4 357.666666667 -10 327 -10 c 0
 307.666666667 -10 290.166666667 -7.83333333333 274.5 -3.5 c 128
 258.833333333 0.833333333333 244.833333333 6.5 232.5 13.5 c 128
 220.166666667 20.5 209.166666667 28.6666666667 199.5 38 c 128
 189.833333333 47.3333333333 181.333333333 57.3333333333 174 68 c 1
 168 68 l 1
 150 0 l 1
 85 0 l 1
 85 760 l 1
 174 760 l 1
 174 576 l 2
 174 564.666666667 173.833333333 552.666666667 173.5 540 c 128
 173.166666667 527.333333333 172.666666667 515.333333333 172 504 c 0
 171.333333333 490.666666667 170.666666667 478 170 466 c 1
 174 466 l 1
 181.333333333 477.333333333 189.666666667 487.833333333 199 497.5 c 128
 208.333333333 507.166666667 219.333333333 515.666666667 232 523 c 128
 244.666666667 530.333333333 258.833333333 536 274.5 540 c 128
 290.166666667 544 307.666666667 546 327 546 c 0
310 472 m 0
 284 472 262.333333333 467.833333333 245 459.5 c 128
 227.666666667 451.166666667 213.666666667 438.5 203 421.5 c 128
 192.333333333 404.5 184.833333333 383.333333333 180.5 358 c 128
 176.166666667 332.666666667 174 303 174 269 c 0
 174 236.333333333 176.166666667 207.166666667 180.5 181.5 c 128
 184.833333333 155.833333333 192.333333333 134.333333333 203 117 c 128
 213.666666667 99.6666666667 227.666666667 86.5 245 77.5 c 128
 262.333333333 68.5 284.333333333 64 311 64 c 0
 355 64 387.333333333 81.6666666667 408 117 c 128
 428.666666667 152.333333333 439 203.333333333 439 270 c 0
 439 338 428.666666667 388.666666667 408 422 c 128
 387.333333333 455.333333333 354.666666667 472 310 472 c 0
EndSplineSet
Validated: 524289
EndChar

StartChar: u
Encoding: 117 117 9
Width: 588
GlyphClass: 2
Flags: W
LayerCount: 3
Fore
SplineSet
432 0 m 1
 419 72 l 1
 414 72 l 1
 406 58 396.333333333 45.8333333333 385 35.5 c 128
 373.666666667 25.1666666667 361.333333333 16.6666666667 348 10 c 128
 334.666666667 3.33333333333 320.5 -1.66666666667 305.5 -5 c 128
 290.5 -8.33333333333 275.333333333 -10 260 -10 c 0
 230.666666667 -10 204.666666667 -6.16666666667 182 1.5 c 128
 159.333333333 9.16666666667 140.5 21 125.5 37 c 128
 110.5 53 99.1666666667 73.3333333333 91.5 98 c 128
 83.8333333333 122.666666667 80 152 80 186 c 2
 80 536 l 1
 169 536 l 1
 169 191 l 2
 169 149 177.666666667 117.333333333 195 96 c 128
 212.333333333 74.6666666667 239 64 275 64 c 0
 301.666666667 64 323.833333333 68.1666666667 341.5 76.5 c 128
 359.166666667 84.8333333333 373.5 97.3333333333 384.5 114 c 128
 395.5 130.666666667 403.333333333 151 408 175 c 128
 412.666666667 199 415 226.666666667 415 258 c 2
 415 536 l 1
 504 536 l 1
 504 0 l 1
 432 0 l 1
EndSplineSet
Validated: 524289
EndChar

StartChar: p
Encoding: 112 112 10
Width: 585
GlyphClass: 2
Flags: W
LayerCount: 3
Fore
SplineSet
327 -10 m 0
 307.666666667 -10 290.166666667 -7.83333333333 274.5 -3.5 c 128
 258.833333333 0.833333333333 244.833333333 6.5 232.5 13.5 c 128
 220.166666667 20.5 209.166666667 28.6666666667 199.5 38 c 128
 189.833333333 47.3333333333 181.333333333 57.3333333333 174 68 c 1
 168 68 l 1
 168.666666667 56.6666666667 169.666666667 46 171 36 c 0
 172 23 172 23 173 10 c 128
 173.666666667 1.33333333333 174 -5.66666666667 174 -11 c 2
 174 -240 l 1
 85 -240 l 1
 85 536 l 1
 157 536 l 1
 170 464 l 1
 174 464 l 1
 181.333333333 475.333333333 189.666666667 486 199 496 c 128
 208.333333333 506 219.333333333 514.666666667 232 522 c 128
 244.666666667 529.333333333 258.833333333 535.166666667 274.5 539.5 c 128
 290.166666667 543.833333333 307.666666667 546 327 546 c 0
 357.666666667 546 385.5 540.166666667 410.5 528.5 c 128
 435.5 516.833333333 456.833333333 499.333333333 474.5 476 c 128
 492.166666667 452.666666667 506 423.666666667 516 389 c 128
 526 354.333333333 531 314.333333333 531 269 c 0
 531 223 526 182.666666667 516 148 c 128
 506 113.333333333 492.166666667 84.3333333333 474.5 61 c 128
 456.833333333 37.6666666667 435.5 20 410.5 8 c 128
 385.5 -4 357.666666667 -10 327 -10 c 0
310 472 m 0
 285.333333333 472 264.5 468.333333333 247.5 461 c 128
 230.5 453.666666667 216.666666667 442.333333333 206 427 c 128
 195.333333333 411.666666667 187.5 392.5 182.5 369.5 c 128
 177.5 346.5 174.666666667 319.666666667 174 289 c 2
 174 269 l 2
 174 236.333333333 176.166666667 207.166666667 180.5 181.5 c 128
 184.833333333 155.833333333 192.333333333 134.333333333 203 117 c 128
 213.666666667 99.6666666667 227.666666667 86.5 245 77.5 c 128
 262.333333333 68.5 284.333333333 64 311 64 c 0
 355 64 387.333333333 81.6666666667 408 117 c 128
 428.666666667 152.333333333 439 203.333333333 439 270 c 0
 439 338 428.666666667 388.666666667 408 422 c 128
 387.333333333 455.333333333 354.666666667 472 310 472 c 0
EndSplineSet
Validated: 524289
EndChar

StartChar: q
Encoding: 113 113 11
Width: 585
GlyphClass: 2
Flags: W
LayerCount: 3
Fore
SplineSet
276 64 m 0
 300.666666667 64 321.5 67.6666666667 338.5 75 c 128
 355.5 82.3333333333 369.333333333 93.6666666667 380 109 c 128
 390.666666667 124.333333333 398.5 143.5 403.5 166.5 c 128
 408.5 189.5 411.333333333 216.333333333 412 247 c 2
 412 267 l 2
 412 299.666666667 409.833333333 328.833333333 405.5 354.5 c 128
 401.166666667 380.166666667 393.666666667 401.666666667 383 419 c 128
 372.333333333 436.333333333 358.166666667 449.5 340.5 458.5 c 128
 322.833333333 467.5 301 472 275 472 c 0
 231 472 198.666666667 454.333333333 178 419 c 128
 157.333333333 383.666666667 147 332.666666667 147 266 c 0
 147 198 157.333333333 147.333333333 178 114 c 128
 198.666666667 80.6666666667 231.333333333 64 276 64 c 0
259 -10 m 0
 229 -10 201.333333333 -4.16666666667 176 7.5 c 128
 150.666666667 19.1666666667 129 36.6666666667 111 60 c 128
 93 83.3333333333 79.1666666667 112.333333333 69.5 147 c 128
 59.8333333333 181.666666667 55 221.666666667 55 267 c 0
 55 313 59.8333333333 353.333333333 69.5 388 c 128
 79.1666666667 422.666666667 93 451.666666667 111 475 c 128
 129 498.333333333 150.5 516 175.5 528 c 128
 200.5 540 228.333333333 546 259 546 c 0
 278.333333333 546 295.666666667 543.833333333 311 539.5 c 128
 326.333333333 535.166666667 340.333333333 529.333333333 353 522 c 128
 365.666666667 514.666666667 376.833333333 506 386.5 496 c 128
 396.166666667 486 404.666666667 475.333333333 412 464 c 1
 416 464 l 1
 429 536 l 1
 501 536 l 1
 501 -240 l 1
 412 -240 l 1
 412 -11 l 2
 412 -5 412.333333333 2.66666666667 413 12 c 128
 414 26 414 26 415 40 c 0
 415.666666667 50.6666666667 416.666666667 61.3333333333 418 72 c 1
 412 72 l 1
 404.666666667 60.6666666667 396.333333333 50 387 40 c 128
 377.666666667 30 366.666666667 21.3333333333 354 14 c 128
 341.333333333 6.66666666667 327.166666667 0.833333333333 311.5 -3.5 c 128
 295.833333333 -7.83333333333 278.333333333 -10 259 -10 c 0
EndSplineSet
Validated: 524289
EndChar

StartChar: m
Encoding: 109 109 12
Width: 895
GlyphClass: 2
Flags: W
LayerCount: 3
Fore
SplineSet
727 0 m 1
 727 345 l 2
 727 387 718.833333333 418.666666667 702.5 440 c 128
 686.166666667 461.333333333 661 472 627 472 c 0
 603 472 582.833333333 468.166666667 566.5 460.5 c 128
 550.166666667 452.833333333 536.666666667 441.666666667 526 427 c 128
 515.333333333 412.333333333 507.5 394 502.5 372 c 128
 497.5 350 495 324.666666667 495 296 c 2
 495 0 l 1
 406 0 l 1
 406 345 l 2
 406 387 397.833333333 418.666666667 381.5 440 c 128
 365.166666667 461.333333333 340 472 306 472 c 0
 280.666666667 472 259.666666667 467.833333333 243 459.5 c 128
 226.333333333 451.166666667 212.833333333 438.666666667 202.5 422 c 128
 192.166666667 405.333333333 184.833333333 385 180.5 361 c 128
 176.166666667 337 174 309.333333333 174 278 c 2
 174 0 l 1
 85 0 l 1
 85 536 l 1
 157 536 l 1
 170 464 l 1
 175 464 l 1
 183 478 192.333333333 490.166666667 203 500.5 c 128
 213.666666667 510.833333333 225.333333333 519.333333333 238 526 c 128
 250.666666667 532.666666667 264.333333333 537.666666667 279 541 c 128
 293.666666667 544.333333333 308.333333333 546 323 546 c 0
 362.333333333 546 394.833333333 538.833333333 420.5 524.5 c 128
 446.166666667 510.166666667 465.333333333 487.666666667 478 457 c 1
 482 457 l 1
 490.666666667 472.333333333 500.833333333 485.5 512.5 496.5 c 128
 524.166666667 507.5 537.166666667 516.666666667 551.5 524 c 128
 565.833333333 531.333333333 580.833333333 536.833333333 596.5 540.5 c 128
 612.166666667 544.166666667 628 546 644 546 c 0
 700.666666667 546 743.5 530.5 772.5 499.5 c 128
 801.5 468.5 816 418.666666667 816 350 c 2
 816 0 l 1
 727 0 l 1
EndSplineSet
Validated: 524289
EndChar

StartChar: t
Encoding: 116 116 13
Width: 338
GlyphClass: 2
Flags: W
LayerCount: 3
Fore
SplineSet
247 63 m 0
 253 63 259.666666667 63.3333333333 267 64 c 128
 274.333333333 64.6666666667 281.333333333 65.5 288 66.5 c 128
 294.666666667 67.5 300.833333333 68.6666666667 306.5 70 c 128
 312.166666667 71.3333333333 316.666666667 72.3333333333 320 73 c 1
 320 6 l 1
 316 4 310.666666667 2 304 0 c 128
 297.333333333 -2 290.166666667 -3.66666666667 282.5 -5 c 128
 274.833333333 -6.33333333333 266.666666667 -7.5 258 -8.5 c 128
 249.333333333 -9.5 241 -10 233 -10 c 0
 213 -10 194.333333333 -7.33333333333 177 -2 c 128
 159.666666667 3.33333333333 144.666666667 12.3333333333 132 25 c 128
 119.333333333 37.6666666667 109.5 54.8333333333 102.5 76.5 c 128
 95.5 98.1666666667 92 125.333333333 92 158 c 2
 92 469 l 1
 16 469 l 1
 16 509 l 1
 92 547 l 1
 130 659 l 1
 181 659 l 1
 181 536 l 1
 316 536 l 1
 316 469 l 1
 181 469 l 1
 181 158 l 2
 181 126.666666667 186.166666667 103 196.5 87 c 128
 206.833333333 71 223.666666667 63 247 63 c 0
EndSplineSet
Validated: 524289
EndChar

StartChar: r
Encoding: 114 114 14
Width: 398
GlyphClass: 2
Flags: W
LayerCount: 3
Fore
SplineSet
317 546 m 0
 326.333333333 546 336.833333333 545.5 348.5 544.5 c 128
 360.166666667 543.5 370.333333333 542.333333333 379 541 c 1
 367 459 l 1
 353 461 353 461 339 463 c 128
 329.666666667 464.333333333 320.666666667 465 312 465 c 0
 291.333333333 465 272.5 460.833333333 255.5 452.5 c 128
 238.5 444.166666667 224 432.333333333 212 417 c 128
 200 401.666666667 190.666666667 383.166666667 184 361.5 c 128
 177.333333333 339.833333333 174 315.666666667 174 289 c 2
 174 0 l 1
 85 0 l 1
 85 536 l 1
 157 536 l 1
 168 438 l 1
 172 438 l 1
 180 452 188.666666667 465.5 198 478.5 c 128
 207.333333333 491.5 217.833333333 503 229.5 513 c 128
 241.166666667 523 254.166666667 531 268.5 537 c 128
 282.833333333 543 299 546 317 546 c 0
EndSplineSet
Validated: 524289
EndChar

StartChar: v
Encoding: 118 118 15
Width: 479
GlyphClass: 2
Flags: W
LayerCount: 3
Fore
SplineSet
183 0 m 1
 0 536 l 1
 92 536 l 1
 189 238 l 2
 192.333333333 227.333333333 196.5 213.5 201.5 196.5 c 128
 206.5 179.5 211.5 162.166666667 216.5 144.5 c 128
 221.5 126.833333333 226 110.166666667 230 94.5 c 128
 234 78.8333333333 236.666666667 67 238 59 c 1
 241 59 l 1
 242.333333333 67 245 78.8333333333 249 94.5 c 128
 253 110.166666667 257.5 126.833333333 262.5 144.5 c 128
 267.5 162.166666667 272.5 179.5 277.5 196.5 c 128
 282.5 213.5 286.666666667 227.333333333 290 238 c 2
 387 536 l 1
 479 536 l 1
 296 0 l 1
 183 0 l 1
EndSplineSet
Validated: 524289
EndChar

StartChar: G
Encoding: 71 71 16
Width: 689
GlyphClass: 2
Flags: W
LayerCount: 3
Fore
SplineSet
382 377 m 1
 618 377 l 1
 618 27 l 1
 600 21 582 15.6666666667 564 11 c 128
 546 6.33333333333 527.333333333 2.5 508 -0.5 c 128
 488.666666667 -3.5 468.5 -5.83333333333 447.5 -7.5 c 128
 426.5 -9.16666666667 403.666666667 -10 379 -10 c 0
 327.666666667 -10 282.333333333 -1.33333333333 243 16 c 128
 203.666666667 33.3333333333 170.5 57.8333333333 143.5 89.5 c 128
 116.5 121.166666667 96 159.666666667 82 205 c 128
 68 250.333333333 61 301.333333333 61 358 c 0
 61 414 68.6666666667 464.666666667 84 510 c 128
 99.3333333333 555.333333333 121.833333333 593.833333333 151.5 625.5 c 128
 181.166666667 657.166666667 217.833333333 681.5 261.5 698.5 c 128
 305.166666667 715.5 354.666666667 724 410 724 c 0
 446 724 480.666666667 720.5 514 713.5 c 128
 547.333333333 706.5 578.333333333 696 607 682 c 1
 572 603 l 1
 560 608.333333333 547.333333333 613.5 534 618.5 c 128
 520.666666667 623.5 506.833333333 627.833333333 492.5 631.5 c 128
 478.166666667 635.166666667 463.333333333 638.166666667 448 640.5 c 128
 432.666666667 642.833333333 417.666666667 644 403 644 c 0
 363 644 327.666666667 637.333333333 297 624 c 128
 266.333333333 610.666666667 240.666666667 591.666666667 220 567 c 128
 199.333333333 542.333333333 183.666666667 512.333333333 173 477 c 128
 162.333333333 441.666666667 157 401.666666667 157 357 c 0
 157 315 161.5 276.333333333 170.5 241 c 128
 179.5 205.666666667 193.833333333 175.333333333 213.5 150 c 128
 233.166666667 124.666666667 258.333333333 105 289 91 c 128
 319.666666667 77 357 70 401 70 c 0
 415 70 428 70.3333333333 440 71 c 128
 452 71.6666666667 463 72.6666666667 473 74 c 128
 483 75.3333333333 492.5 77 501.5 79 c 128
 510.5 81 519.333333333 82.6666666667 528 84 c 1
 528 297 l 1
 382 297 l 1
 382 377 l 1
EndSplineSet
Validated: 524289
EndChar

StartChar: H
Encoding: 72 72 17
Width: 701
GlyphClass: 2
Flags: W
LayerCount: 3
Fore
SplineSet
604 0 m 1
 513 0 l 1
 513 333 l 1
 188 333 l 1
 188 0 l 1
 97 0 l 1
 97 714 l 1
 188 714 l 1
 188 413 l 1
 513 413 l 1
 513 714 l 1
 604 714 l 1
 604 0 l 1
EndSplineSet
Validated: 1
EndChar

StartChar: O
Encoding: 79 79 18
Width: 742
GlyphClass: 2
Flags: W
LayerCount: 3
Fore
SplineSet
680 358 m 256
 680 302.666666667 673.5 252.5 660.5 207.5 c 128
 647.5 162.5 627.833333333 123.833333333 601.5 91.5 c 128
 575.166666667 59.1666666667 542.833333333 34.1666666667 504.5 16.5 c 128
 466.166666667 -1.16666666667 421.666666667 -10 371 -10 c 0
 317.666666667 -10 271.666666667 -1.16666666667 233 16.5 c 128
 194.333333333 34.1666666667 162.166666667 59.1666666667 136.5 91.5 c 128
 110.833333333 123.833333333 91.8333333333 162.666666667 79.5 208 c 128
 67.1666666667 253.333333333 61 303.666666667 61 359 c 256
 61 414.333333333 67.1666666667 464.5 79.5 509.5 c 128
 91.8333333333 554.5 110.833333333 593 136.5 625 c 128
 162.166666667 657 194.5 681.666666667 233.5 699 c 128
 272.5 716.333333333 318.666666667 725 372 725 c 0
 422.666666667 725 467 716.333333333 505 699 c 128
 543 681.666666667 575.166666667 657 601.5 625 c 128
 627.833333333 593 647.5 554.333333333 660.5 509 c 128
 673.5 463.666666667 680 413.333333333 680 358 c 256
157 358 m 256
 157 313.333333333 161.333333333 273.166666667 170 237.5 c 128
 178.666666667 201.833333333 191.666666667 171.5 209 146.5 c 128
 226.333333333 121.5 248.333333333 102.5 275 89.5 c 128
 301.666666667 76.5 333.666666667 70 371 70 c 256
 408.333333333 70 440.333333333 76.5 467 89.5 c 128
 493.666666667 102.5 515.833333333 121.5 533.5 146.5 c 128
 551.166666667 171.5 564 201.833333333 572 237.5 c 128
 580 273.166666667 584 313.333333333 584 358 c 256
 584 402.666666667 580 442.833333333 572 478.5 c 128
 564 514.166666667 551.333333333 544.166666667 534 568.5 c 128
 516.666666667 592.833333333 494.666666667 611.666666667 468 625 c 128
 441.333333333 638.333333333 409.333333333 645 372 645 c 256
 334.666666667 645 302.5 638.333333333 275.5 625 c 128
 248.5 611.666666667 226.333333333 592.833333333 209 568.5 c 128
 191.666666667 544.166666667 178.666666667 514.166666667 170 478.5 c 128
 161.333333333 442.833333333 157 402.666666667 157 358 c 256
EndSplineSet
Validated: 524289
EndChar

StartChar: A
Encoding: 65 65 19
Width: 607
GlyphClass: 2
Flags: W
LayerCount: 3
Fore
SplineSet
515 0 m 1
 437 221 l 1
 171 221 l 1
 92 0 l 1
 0 0 l 1
 262 717 l 1
 345 717 l 1
 608 0 l 1
 515 0 l 1
408 302 m 1
 336 509 l 2
 334 515 331.666666667 522.166666667 329 530.5 c 128
 326.333333333 538.833333333 323.5 547.833333333 320.5 557.5 c 128
 317.5 567.166666667 314.5 577.333333333 311.5 588 c 128
 308.5 598.666666667 305.666666667 609 303 619 c 1
 301 609 298.5 598.666666667 295.5 588 c 128
 292.5 577.333333333 289.5 567 286.5 557 c 128
 283.5 547 280.666666667 537.833333333 278 529.5 c 128
 275.333333333 521.166666667 273 514.333333333 271 509 c 2
 200 302 l 1
 408 302 l 1
EndSplineSet
Validated: 524289
EndChar

StartChar: E
Encoding: 69 69 20
Width: 527
GlyphClass: 2
Flags: W
LayerCount: 3
Fore
SplineSet
468 0 m 1
 97 0 l 1
 97 714 l 1
 468 714 l 1
 468 634 l 1
 188 634 l 1
 188 413 l 1
 449 413 l 1
 449 334 l 1
 188 334 l 1
 188 80 l 1
 468 80 l 1
 468 0 l 1
EndSplineSet
Validated: 1
EndChar

StartChar: F
Encoding: 70 70 21
Width: 491
GlyphClass: 2
Flags: W
LayerCount: 3
Fore
SplineSet
188 0 m 1
 97 0 l 1
 97 714 l 1
 468 714 l 1
 468 634 l 1
 188 634 l 1
 188 382 l 1
 449 382 l 1
 449 302 l 1
 188 302 l 1
 188 0 l 1
EndSplineSet
Validated: 1
EndChar

StartChar: N
Encoding: 78 78 22
Width: 729
GlyphClass: 2
Flags: W
LayerCount: 3
Fore
SplineSet
632 0 m 1
 527 0 l 1
 176 591 l 1
 172 591 l 1
 174 565.666666667 175.666666667 540.666666667 177 516 c 0
 178.333333333 494.666666667 179.333333333 472.5 180 449.5 c 128
 180.666666667 426.5 181 405.666666667 181 387 c 2
 181 0 l 1
 97 0 l 1
 97 714 l 1
 201 714 l 1
 551 126 l 1
 554 126 l 1
 553.333333333 150.666666667 552.333333333 175 551 199 c 0
 551 209.666666667 550.666666667 220.5 550 231.5 c 128
 549.333333333 242.5 548.666666667 253.333333333 548 264 c 128
 547.333333333 274.666666667 547 285.166666667 547 295.5 c 128
 547 311 547 311 547 323 c 2
 547 714 l 1
 632 714 l 1
 632 0 l 1
EndSplineSet
Validated: 524289
EndChar

StartChar: V
Encoding: 86 86 23
Width: 567
GlyphClass: 2
Flags: W
LayerCount: 3
Fore
SplineSet
471 714 m 1
 568 714 l 1
 329 0 l 1
 238 0 l 1
 0 714 l 1
 96 714 l 1
 240 261 l 2
 249.333333333 231.666666667 257.5 203.166666667 264.5 175.5 c 128
 271.5 147.833333333 277.666666667 122 283 98 c 1
 287.666666667 122 293.833333333 147.833333333 301.5 175.5 c 128
 309.166666667 203.166666667 318 232.666666667 328 264 c 2
 471 714 l 1
EndSplineSet
Validated: 524289
EndChar

StartChar: Z
Encoding: 90 90 24
Width: 539
GlyphClass: 2
Flags: W
LayerCount: 3
Fore
SplineSet
499 0 m 1
 40 0 l 1
 40 71 l 1
 387 633 l 1
 50 633 l 1
 50 714 l 1
 489 714 l 1
 489 643 l 1
 142 81 l 1
 499 81 l 1
 499 0 l 1
EndSplineSet
Validated: 1
EndChar

StartChar: I
Encoding: 73 73 25
Width: 338
GlyphClass: 2
Flags: W
LayerCount: 3
Fore
SplineSet
299 0 m 1
 40 0 l 1
 40 50 l 1
 124 70 l 1
 124 644 l 1
 40 664 l 1
 40 714 l 1
 299 714 l 1
 299 664 l 1
 215 644 l 1
 215 70 l 1
 299 50 l 1
 299 0 l 1
EndSplineSet
Validated: 1
EndChar

StartChar: X
Encoding: 88 88 26
Width: 546
GlyphClass: 2
Flags: W
LayerCount: 3
Fore
SplineSet
547 0 m 1
 444 0 l 1
 271 310 l 1
 92 0 l 1
 0 0 l 1
 221 373 l 1
 15 714 l 1
 112 714 l 1
 274 441 l 1
 437 714 l 1
 530 714 l 1
 324 376 l 1
 547 0 l 1
EndSplineSet
Validated: 1
EndChar

StartChar: Y
Encoding: 89 89 27
Width: 526
GlyphClass: 2
Flags: W
LayerCount: 3
Fore
SplineSet
263 353 m 1
 429 714 l 1
 527 714 l 1
 309 278 l 1
 309 0 l 1
 218 0 l 1
 218 273 l 1
 0 714 l 1
 99 714 l 1
 263 353 l 1
EndSplineSet
Validated: 1
EndChar

StartChar: K
Encoding: 75 75 28
Width: 579
GlyphClass: 2
Flags: W
LayerCount: 3
Fore
SplineSet
579 0 m 1
 476 0 l 1
 256 341 l 1
 188 285 l 1
 188 0 l 1
 97 0 l 1
 97 714 l 1
 188 714 l 1
 188 357 l 1
 247 439 l 1
 468 714 l 1
 570 714 l 1
 316 403 l 1
 579 0 l 1
EndSplineSet
Validated: 1
EndChar

StartChar: M
Encoding: 77 77 29
Width: 870
GlyphClass: 2
Flags: W
LayerCount: 3
Fore
SplineSet
392 0 m 1
 176 625 l 1
 172 625 l 1
 174 601 175.666666667 577 177 553 c 0
 178.333333333 532.333333333 179.333333333 510.833333333 180 488.5 c 128
 180.666666667 466.166666667 181 445.666666667 181 427 c 2
 181 0 l 1
 97 0 l 1
 97 714 l 1
 232 714 l 1
 433 132 l 1
 436 132 l 1
 638 714 l 1
 773 714 l 1
 773 0 l 1
 682 0 l 1
 682 433 l 2
 682 449.666666667 682.333333333 469 683 491 c 128
 683.666666667 513 684.666666667 534 686 554 c 0
 687.333333333 577.333333333 688.333333333 600.666666667 689 624 c 1
 685 624 l 1
 467 0 l 1
 392 0 l 1
EndSplineSet
Validated: 524289
EndChar

StartChar: J
Encoding: 74 74 30
Width: 270
GlyphClass: 2
Flags: W
LayerCount: 3
Fore
SplineSet
-14 -190 m 0
 -30.6666666667 -190 -45.1666666667 -189 -57.5 -187 c 128
 -69.8333333333 -185 -80.6666666667 -182 -90 -178 c 1
 -90 -100 l 1
 -78.6666666667 -102.666666667 -66.6666666667 -105 -54 -107 c 128
 -41.3333333333 -109 -27.6666666667 -110 -13 -110 c 0
 -1 -110 11.1666666667 -108.5 23.5 -105.5 c 128
 35.8333333333 -102.5 46.8333333333 -96.8333333333 56.5 -88.5 c 128
 66.1666666667 -80.1666666667 74.1666666667 -68.8333333333 80.5 -54.5 c 128
 86.8333333333 -40.1666666667 90 -22 90 0 c 2
 90 714 l 1
 181 714 l 1
 181 10 l 2
 181 -24 176.166666667 -53.6666666667 166.5 -79 c 128
 156.833333333 -104.333333333 143.5 -125.166666667 126.5 -141.5 c 128
 109.5 -157.833333333 89 -170 65 -178 c 128
 41 -186 14.6666666667 -190 -14 -190 c 0
EndSplineSet
Validated: 524289
EndChar

StartChar: R
Encoding: 82 82 31
Width: 589
GlyphClass: 2
Flags: W
LayerCount: 3
Fore
SplineSet
188 295 m 1
 188 0 l 1
 97 0 l 1
 97 714 l 1
 271 714 l 2
 357.666666667 714 421.666666667 697.166666667 463 663.5 c 128
 504.333333333 629.833333333 525 579 525 511 c 0
 525 483 521 458.333333333 513 437 c 128
 505 415.666666667 494.333333333 397.5 481 382.5 c 128
 467.666666667 367.5 452.666666667 355 436 345 c 128
 419.333333333 335 402 326.666666667 384 320 c 1
 578 0 l 1
 471 0 l 1
 300 295 l 1
 188 295 l 1
188 372 m 1
 268 372 l 2
 297.333333333 372 322.333333333 374.833333333 343 380.5 c 128
 363.666666667 386.166666667 380.5 394.666666667 393.5 406 c 128
 406.5 417.333333333 416 431.333333333 422 448 c 128
 428 464.666666667 431 484.333333333 431 507 c 0
 431 530.333333333 427.666666667 550.166666667 421 566.5 c 128
 414.333333333 582.833333333 404.333333333 596.166666667 391 606.5 c 128
 377.666666667 616.833333333 360.666666667 624.333333333 340 629 c 128
 319.333333333 633.666666667 294.666666667 636 266 636 c 2
 188 636 l 1
 188 372 l 1
EndSplineSet
Validated: 524289
EndChar

StartChar: D
Encoding: 68 68 32
Width: 684
GlyphClass: 2
Flags: W
LayerCount: 3
Fore
SplineSet
623 364 m 0
 623 304 615.166666667 251.166666667 599.5 205.5 c 128
 583.833333333 159.833333333 561.166666667 121.833333333 531.5 91.5 c 128
 501.833333333 61.1666666667 465.5 38.3333333333 422.5 23 c 128
 379.5 7.66666666667 330.666666667 0 276 0 c 2
 97 0 l 1
 97 714 l 1
 296 714 l 2
 346 714 391.166666667 706.5 431.5 691.5 c 128
 471.833333333 676.5 506.166666667 654.333333333 534.5 625 c 128
 562.833333333 595.666666667 584.666666667 559.166666667 600 515.5 c 128
 615.333333333 471.833333333 623 421.333333333 623 364 c 0
527 361 m 0
 527 408.333333333 521.666666667 449.333333333 511 484 c 128
 500.333333333 518.666666667 484.666666667 547.333333333 464 570 c 128
 443.333333333 592.666666667 418 609.333333333 388 620 c 128
 358 630.666666667 324 636 286 636 c 2
 188 636 l 1
 188 78 l 1
 267 78 l 2
 353 78 417.833333333 101.833333333 461.5 149.5 c 128
 505.166666667 197.166666667 527 267.666666667 527 361 c 0
EndSplineSet
Validated: 524289
EndChar

StartChar: P
Encoding: 80 80 33
Width: 576
GlyphClass: 2
Flags: W
LayerCount: 3
Fore
SplineSet
525 505 m 0
 525 475.666666667 520.5 447.166666667 511.5 419.5 c 128
 502.5 391.833333333 487.833333333 367.5 467.5 346.5 c 128
 447.166666667 325.5 420 308.833333333 386 296.5 c 128
 352 284.166666667 310.333333333 278 261 278 c 2
 188 278 l 1
 188 0 l 1
 97 0 l 1
 97 714 l 1
 274 714 l 2
 317.333333333 714 354.833333333 709.333333333 386.5 700 c 128
 418.166666667 690.666666667 444.333333333 677.166666667 465 659.5 c 128
 485.666666667 641.833333333 500.833333333 620 510.5 594 c 128
 520.166666667 568 525 538.333333333 525 505 c 0
188 355 m 1
 251 355 l 2
 281 355 307.333333333 357.666666667 330 363 c 128
 352.666666667 368.333333333 371.5 376.666666667 386.5 388 c 128
 401.5 399.333333333 412.666666667 414.166666667 420 432.5 c 128
 427.333333333 450.833333333 431 473.333333333 431 500 c 0
 431 546 417.666666667 580.166666667 391 602.5 c 128
 364.333333333 624.833333333 322.666666667 636 266 636 c 2
 188 636 l 1
 188 355 l 1
EndSplineSet
Validated: 524289
EndChar

StartChar: B
Encoding: 66 66 34
Width: 621
Flags: HMW
LayerCount: 3
Fore
SplineSet
440 523 m 0xf8
 440 595 385 630 301 630 c 2
 168 630 l 1
 168 397 l 1
 256 400 l 1
 379 403 440 444 440 523 c 0xf8
495 202 m 0xf4
 495 296 411 340 310 340 c 0
 303 340 296 339 289 339 c 2
 168 333 l 1
 168 73 l 1
 321 73 l 2
 415 73 495 109 495 202 c 0xf4
430 388 m 1
 509 373 577 301 577 210 c 0xf4
 577 152 555 103 511 63 c 0
 464 21 397 0 310 0 c 2
 85 0 l 1
 85 694 l 1
 329 694 l 2
 438 694 520 632 520 527 c 0xf8
 520 470 471 404 430 388 c 1
EndSplineSet
Validated: 1
EndChar

StartChar: U
Encoding: 85 85 35
Width: 698
GlyphClass: 2
Flags: W
LayerCount: 3
Fore
SplineSet
608 715 m 1
 608 252 l 2
 608 214.666666667 602.666666667 180.166666667 592 148.5 c 128
 581.333333333 116.833333333 565.166666667 89.1666666667 543.5 65.5 c 128
 521.833333333 41.8333333333 494.666666667 23.3333333333 462 10 c 128
 429.333333333 -3.33333333333 390.666666667 -10 346 -10 c 0
 304.666666667 -10 268 -3.66666666667 236 9 c 128
 204 21.6666666667 177.166666667 39.5 155.5 62.5 c 128
 133.833333333 85.5 117.5 113.166666667 106.5 145.5 c 128
 95.5 177.833333333 90 214 90 254 c 2
 90 714 l 1
 181 714 l 1
 181 249 l 2
 181 192.333333333 195.166666667 148.333333333 223.5 117 c 128
 251.833333333 85.6666666667 294.333333333 70 351 70 c 0
 379.666666667 70 404.5 74.3333333333 425.5 83 c 128
 446.5 91.6666666667 463.666666667 104 477 120 c 128
 490.333333333 136 500.333333333 155 507 177 c 128
 513.666666667 199 517 223.333333333 517 250 c 2
 517 715 l 1
 608 715 l 1
EndSplineSet
Validated: 524289
EndChar

StartChar: Q
Encoding: 81 81 36
Width: 742
GlyphClass: 2
Flags: W
LayerCount: 3
Fore
SplineSet
680 358 m 0
 680 315.333333333 676 275.666666667 668 239 c 128
 660 202.333333333 648.333333333 169.166666667 633 139.5 c 128
 617.666666667 109.833333333 598.5 84.1666666667 575.5 62.5 c 128
 552.5 40.8333333333 525.666666667 24 495 12 c 1
 660 -170 l 1
 541 -170 l 1
 406 -8 l 1
 400.666666667 -8.66666666667 395 -9.16666666667 389 -9.5 c 128
 383 -9.83333333333 377 -10 371 -10 c 0
 317.666666667 -10 271.666666667 -1.16666666667 233 16.5 c 128
 194.333333333 34.1666666667 162.166666667 59.1666666667 136.5 91.5 c 128
 110.833333333 123.833333333 91.8333333333 162.666666667 79.5 208 c 128
 67.1666666667 253.333333333 61 303.666666667 61 359 c 256
 61 414.333333333 67.1666666667 464.5 79.5 509.5 c 128
 91.8333333333 554.5 110.833333333 593 136.5 625 c 128
 162.166666667 657 194.5 681.666666667 233.5 699 c 128
 272.5 716.333333333 318.666666667 725 372 725 c 0
 422 725 466.166666667 716.333333333 504.5 699 c 128
 542.833333333 681.666666667 575.166666667 657 601.5 625 c 128
 627.833333333 593 647.5 554.333333333 660.5 509 c 128
 673.5 463.666666667 680 413.333333333 680 358 c 0
157 358 m 256
 157 313.333333333 161.333333333 273.166666667 170 237.5 c 128
 178.666666667 201.833333333 191.666666667 171.5 209 146.5 c 128
 226.333333333 121.5 248.333333333 102.5 275 89.5 c 128
 301.666666667 76.5 333.666666667 70 371 70 c 256
 408.333333333 70 440.333333333 76.5 467 89.5 c 128
 493.666666667 102.5 515.833333333 121.5 533.5 146.5 c 128
 551.166666667 171.5 564 201.833333333 572 237.5 c 128
 580 273.166666667 584 313.333333333 584 358 c 256
 584 402.666666667 580 442.833333333 572 478.5 c 128
 564 514.166666667 551.333333333 544.166666667 534 568.5 c 128
 516.666666667 592.833333333 494.666666667 611.666666667 468 625 c 128
 441.333333333 638.333333333 409.333333333 645 372 645 c 256
 334.666666667 645 302.5 638.333333333 275.5 625 c 128
 248.5 611.666666667 226.333333333 592.833333333 209 568.5 c 128
 191.666666667 544.166666667 178.666666667 514.166666667 170 478.5 c 128
 161.333333333 442.833333333 157 402.666666667 157 358 c 256
EndSplineSet
Validated: 524289
EndChar

StartChar: W
Encoding: 87 87 37
Width: 883
GlyphClass: 2
Flags: W
LayerCount: 3
Fore
SplineSet
395 714 m 1
 491 714 l 1
 603 296 l 2
 607.666666667 278 612.5 259.833333333 617.5 241.5 c 128
 622.5 223.166666667 627 205.5 631 188.5 c 128
 635 171.5 638.5 155.333333333 641.5 140 c 128
 644.5 124.666666667 647 110.666666667 649 98 c 1
 650.333333333 110.666666667 652 124.333333333 654 139 c 128
 656 153.666666667 658.333333333 169 661 185 c 128
 663.666666667 201 666.5 217.333333333 669.5 234 c 128
 672.5 250.666666667 675.666666667 267 679 283 c 2
 777 714 l 1
 874 714 l 1
 695 0 l 1
 603 0 l 1
 479 458 l 2
 474.333333333 474.666666667 469.833333333 491.833333333 465.5 509.5 c 128
 461.166666667 527.166666667 457.333333333 543.666666667 454 559 c 0
 450 577 446.333333333 594.333333333 443 611 c 1
 439.666666667 594.333333333 436 577 432 559 c 0
 428.666666667 543.666666667 425 526.833333333 421 508.5 c 128
 417 490.166666667 412.666666667 472.333333333 408 455 c 2
 290 0 l 1
 198 0 l 1
 10 714 l 1
 106 714 l 1
 215 280 l 2
 219 265.333333333 222.5 249.833333333 225.5 233.5 c 128
 228.5 217.166666667 231.5 201 234.5 185 c 128
 237.5 169 240.166666667 153.666666667 242.5 139 c 128
 244.833333333 124.333333333 246.666666667 110.666666667 248 98 c 1
 249.333333333 110 251.333333333 124 254 140 c 128
 256.666666667 156 259.666666667 172.833333333 263 190.5 c 128
 266.333333333 208.166666667 269.833333333 226 273.5 244 c 128
 277.166666667 262 281 279 285 295 c 2
 395 714 l 1
EndSplineSet
Validated: 524289
EndChar

StartChar: C
Encoding: 67 67 38
Width: 603
GlyphClass: 2
Flags: W
LayerCount: 3
Fore
SplineSet
387 644 m 0
 352.333333333 644 320.833333333 637.333333333 292.5 624 c 128
 264.166666667 610.666666667 240 591.666666667 220 567 c 128
 200 542.333333333 184.5 512.333333333 173.5 477 c 128
 162.5 441.666666667 157 401.666666667 157 357 c 0
 157 311 161.833333333 270.166666667 171.5 234.5 c 128
 181.166666667 198.833333333 195.666666667 168.833333333 215 144.5 c 128
 234.333333333 120.166666667 258.333333333 101.666666667 287 89 c 128
 315.666666667 76.3333333333 349 70 387 70 c 0
 415.666666667 70 443.166666667 72.8333333333 469.5 78.5 c 128
 495.833333333 84.1666666667 521.666666667 90.6666666667 547 98 c 1
 547 19 l 1
 534.333333333 14.3333333333 521.666666667 10 509 6 c 128
 496.333333333 2 483 -1 469 -3 c 128
 455 -5 440.166666667 -6.66666666667 424.5 -8 c 128
 408.833333333 -9.33333333333 391.333333333 -10 372 -10 c 0
 318.666666667 -10 272.5 -1.16666666667 233.5 16.5 c 128
 194.5 34.1666666667 162.166666667 59.1666666667 136.5 91.5 c 128
 110.833333333 123.833333333 91.8333333333 162.5 79.5 207.5 c 128
 67.1666666667 252.5 61 302.666666667 61 358 c 0
 61 412 68.1666666667 461.5 82.5 506.5 c 128
 96.8333333333 551.5 117.666666667 590 145 622 c 128
 172.333333333 654 206.333333333 679 247 697 c 128
 287.666666667 715 334.333333333 724 387 724 c 0
 422.333333333 724 456 720.5 488 713.5 c 128
 520 706.5 548.666666667 696 574 682 c 1
 536 606 l 1
 515.333333333 616.666666667 493 625.666666667 469 633 c 128
 445 640.333333333 417.666666667 644 387 644 c 0
EndSplineSet
Validated: 524289
EndChar

StartChar: at
Encoding: 64 64 39
Width: 866
GlyphClass: 2
Flags: W
LayerCount: 3
Fore
SplineSet
813 357 m 0
 813 337 811.5 316.833333333 808.5 296.5 c 128
 805.5 276.166666667 801 256.666666667 795 238 c 128
 789 219.333333333 781.333333333 202.166666667 772 186.5 c 128
 762.666666667 170.833333333 751.833333333 157.166666667 739.5 145.5 c 128
 727.166666667 133.833333333 713 124.666666667 697 118 c 128
 681 111.333333333 663.666666667 108 645 108 c 0
 630.333333333 108 617 110.5 605 115.5 c 128
 593 120.5 582.833333333 127 574.5 135 c 128
 566.166666667 143 559.333333333 152.333333333 554 163 c 128
 548.666666667 173.666666667 545 184.666666667 543 196 c 1
 541 196 l 1
 535 184 527.666666667 172.666666667 519 162 c 128
 510.333333333 151.333333333 500.166666667 142 488.5 134 c 128
 476.833333333 126 463.833333333 119.666666667 449.5 115 c 128
 435.166666667 110.333333333 419.333333333 108 402 108 c 0
 376.666666667 108 354.333333333 112.5 335 121.5 c 128
 315.666666667 130.5 299.333333333 143.333333333 286 160 c 128
 272.666666667 176.666666667 262.5 196.5 255.5 219.5 c 128
 248.5 242.5 245 268 245 296 c 0
 245 328.666666667 249.833333333 358.666666667 259.5 386 c 128
 269.166666667 413.333333333 283 437 301 457 c 128
 319 477 340.833333333 492.5 366.5 503.5 c 128
 392.166666667 514.5 421 520 453 520 c 0
 467.666666667 520 482.333333333 519.333333333 497 518 c 128
 511.666666667 516.666666667 525.666666667 514.833333333 539 512.5 c 128
 552.333333333 510.166666667 564.666666667 507.666666667 576 505 c 128
 587.333333333 502.333333333 596.666666667 499.666666667 604 497 c 1
 593 294 l 2
 593 286.666666667 592.833333333 280.833333333 592.5 276.5 c 128
 592.166666667 272.166666667 592 268.666666667 592 266 c 128
 592 262 592 262 592 260 c 128
 592 258 592 258 592 257 c 0
 592 239.666666667 593.666666667 225.5 597 214.5 c 128
 600.333333333 203.5 604.833333333 194.666666667 610.5 188 c 128
 616.166666667 181.333333333 622.5 176.833333333 629.5 174.5 c 128
 636.5 172.166666667 643.666666667 171 651 171 c 0
 665.666666667 171 678.833333333 176 690.5 186 c 128
 702.166666667 196 711.666666667 209.333333333 719 226 c 128
 726.333333333 242.666666667 732 262.5 736 285.5 c 128
 740 308.5 742 332.666666667 742 358 c 0
 742 404 735 445 721 481 c 128
 707 517 687.666666667 547.333333333 663 572 c 128
 638.333333333 596.666666667 609 615.5 575 628.5 c 128
 541 641.5 504 648 464 648 c 0
 408.666666667 648 360 639 318 621 c 128
 276 603 240.833333333 577.833333333 212.5 545.5 c 128
 184.166666667 513.166666667 162.666666667 474.666666667 148 430 c 128
 133.333333333 385.333333333 126 336.666666667 126 284 c 0
 126 234.666666667 132.5 191 145.5 153 c 128
 158.5 115 177.333333333 83 202 57 c 128
 226.666666667 31 257.5 11.3333333333 294.5 -2 c 128
 331.5 -15.3333333333 374 -22 422 -22 c 0
 442 -22 461.666666667 -20.8333333333 481 -18.5 c 128
 500.333333333 -16.1666666667 519 -13 537 -9 c 128
 555 -5 572.166666667 -0.5 588.5 4.5 c 128
 604.833333333 9.5 620 14.6666666667 634 20 c 1
 634 -49 l 1
 606 -61.6666666667 574.333333333 -71.5 539 -78.5 c 128
 503.666666667 -85.5 465 -89 423 -89 c 0
 365 -89 313 -80.6666666667 267 -64 c 128
 221 -47.3333333333 182.166666667 -23.1666666667 150.5 8.5 c 128
 118.833333333 40.1666666667 94.6666666667 78.8333333333 78 124.5 c 128
 61.3333333333 170.166666667 53 222.333333333 53 281 c 0
 53 342.333333333 62.6666666667 399.333333333 82 452 c 128
 101.333333333 504.666666667 128.833333333 550.333333333 164.5 589 c 128
 200.166666667 627.666666667 243.333333333 658.166666667 294 680.5 c 128
 344.666666667 702.833333333 401.333333333 714 464 714 c 0
 514.666666667 714 561.333333333 705.833333333 604 689.5 c 128
 646.666666667 673.166666667 683.5 649.5 714.5 618.5 c 128
 745.5 587.5 769.666666667 550 787 506 c 128
 804.333333333 462 813 412.333333333 813 357 c 0
323 294 m 0
 323 250.666666667 331.333333333 219.333333333 348 200 c 128
 364.666666667 180.666666667 386.666666667 171 414 171 c 0
 432 171 447.333333333 174.666666667 460 182 c 128
 472.666666667 189.333333333 483 199.666666667 491 213 c 128
 499 226.333333333 505.166666667 242.5 509.5 261.5 c 128
 513.833333333 280.5 516.666666667 301 518 323 c 2
 525 447 l 1
 515.666666667 449.666666667 504.833333333 452 492.5 454 c 128
 480.166666667 456 467 457 453 457 c 0
 429 457 408.833333333 452.333333333 392.5 443 c 128
 376.166666667 433.666666667 362.833333333 421.333333333 352.5 406 c 128
 342.166666667 390.666666667 334.666666667 373.166666667 330 353.5 c 128
 325.333333333 333.833333333 323 314 323 294 c 0
EndSplineSet
Validated: 524289
EndChar

StartChar: bracketleft
Encoding: 91 91 40
Width: 303
GlyphClass: 2
Flags: W
LayerCount: 3
Fore
SplineSet
278 -158 m 1
 80 -158 l 1
 80 714 l 1
 278 714 l 1
 278 641 l 1
 169 641 l 1
 169 -85 l 1
 278 -85 l 1
 278 -158 l 1
EndSplineSet
Validated: 1
EndChar

StartChar: caron
Encoding: 711 711 41
Width: 1000
VWidth: 1023
Flags: W
HStem: 383 182
VStem: 364 262
LayerCount: 3
Fore
SplineSet
410 565 m 29
 410 565 495 470 495 470 c 29
 495 470 583 565 583 565 c 29
 583 565 626 528 626 528 c 29
 626 528 489 383 489 383 c 29
 489 383 364 522 364 522 c 29
 364 522 410 565 410 565 c 29
EndSplineSet
Validated: 1
EndChar

StartChar: dotaccent
Encoding: 729 729 42
Width: 1000
VWidth: 0
Flags: W
HStem: 411 136<447.384 553.634>
VStem: 432 136<426.305 532.626>
LayerCount: 3
Fore
SplineSet
568 478 m 7
 568 435 542 411 502 411 c 7
 457 411 432 437 432 479 c 7
 432 533 462 547 500 547 c 31
 538 547 568 529 568 478 c 7
EndSplineSet
Validated: 1
EndChar

StartChar: H18533
Encoding: 9679 9679 43
Width: 1000
VWidth: 0
LayerCount: 3
Back
SplineSet
102 337 m 4
 102 468.376 208.624 575 340 575 c 4
 471.376 575 578 468.376 578 337 c 4
 578 205.624 471.376 99 340 99 c 4
 208.624 99 102 205.624 102 337 c 4
EndSplineSet
Fore
Validated: 1
EndChar

StartChar: uni5159
Encoding: 20825 20825 44
Width: 1000
VWidth: 1053
LayerCount: 3
Fore
Validated: 1
Layer: 2
SplineSet
734 408 m 5
 734 408 934 407 934 407 c 5
 934 407 934 337 934 337 c 5
 934 337 734 337 734 337 c 5
 734 337 734 -27 734 -27 c 5
 734 -27 674 -27 674 -27 c 5
 674 -27 674 336 674 336 c 5
 674 336 469 337 469 337 c 5
 469 337 469 407 469 407 c 5
 469 407 673 407 673 407 c 5
 673 407 674 676 674 676 c 5
 674 676 734 676 734 676 c 29
 734 676 734 408 734 408 c 5
EndSplineSet
EndChar

StartChar: uni515E
Encoding: 20830 20830 45
Width: 1000
VWidth: 1053
LayerCount: 3
Fore
Validated: 1
Layer: 2
SplineSet
585 25 m 1xf3
 615 40 678 89 690 97 c 1
 690 97 724 31 724 31 c 1
 635 -38 575 -72 539 -72 c 0
 516 -72 505 -57 505 -28 c 2
 505 -28 505 244 505 244 c 1
 505 244 450 246 450 246 c 1
 450 31 383 -65 329 -114 c 1
 329 -114 269 -66 269 -66 c 1
 353 1 376 115 376 244 c 1xfb
 376 244 298 247 298 247 c 1
 298 247 296 252 296 252 c 1
 296 252 296 524 296 524 c 1
 296 524 301 529 301 529 c 1
 301 529 441 529 441 529 c 1
 441 529 442 600 442 600 c 1
 442 600 278 604 278 604 c 1
 278 604 278 675 278 675 c 1
 278 675 441 675 441 675 c 1
 441 675 442 756 442 756 c 1
 442 756 519 756 519 756 c 1
 519 756 519 677 519 677 c 1
 519 677 671 675 671 675 c 1
 671 675 671 604 671 604 c 1
 671 604 522 604 522 604 c 1
 522 604 519 530 519 530 c 1xf5
 519 530 667 528 667 528 c 1
 667 528 671 524 671 524 c 1
 671 524 671 252 671 252 c 1
 671 252 664 246 664 246 c 1
 664 246 582 246 582 246 c 1
 582 246 580 33 580 33 c 1
 580 33 585 25 585 25 c 1xf3
596 320 m 1
 596 320 594 457 594 457 c 1
 594 457 372 457 372 457 c 1
 372 457 373 319 373 319 c 1
 373 319 596 320 596 320 c 1
EndSplineSet
EndChar

StartChar: uni5163
Encoding: 20835 20835 46
Width: 1000
VWidth: 1053
LayerCount: 3
Fore
Validated: 1
Layer: 2
SplineSet
585 25 m 5xf3
 615 40 678 89 690 97 c 5
 690 97 724 31 724 31 c 5
 635 -38 575 -72 539 -72 c 4
 516 -72 505 -57 505 -28 c 6
 505 -28 505 244 505 244 c 5
 505 244 450 246 450 246 c 5
 450 31 383 -65 329 -114 c 5
 329 -114 269 -66 269 -66 c 5
 353 1 376 115 376 244 c 5xfb
 376 244 298 247 298 247 c 5
 298 247 296 252 296 252 c 5
 296 252 296 524 296 524 c 5
 296 524 301 529 301 529 c 5
 301 529 441 529 441 529 c 5
 441 529 442 600 442 600 c 5
 442 600 278 604 278 604 c 5
 278 604 278 675 278 675 c 5
 278 675 441 675 441 675 c 5
 441 675 442 756 442 756 c 5
 442 756 519 756 519 756 c 5
 519 756 519 677 519 677 c 5
 519 677 671 675 671 675 c 5
 671 675 671 604 671 604 c 5
 671 604 522 604 522 604 c 5
 522 604 519 530 519 530 c 5xf5
 519 530 667 528 667 528 c 5
 667 528 671 524 671 524 c 5
 671 524 671 252 671 252 c 5
 671 252 664 246 664 246 c 5
 664 246 582 246 582 246 c 5
 582 246 580 33 580 33 c 5
 580 33 585 25 585 25 c 5xf3
596 320 m 5
 596 320 594 457 594 457 c 5
 594 457 372 457 372 457 c 5
 372 457 373 319 373 319 c 5
 373 319 596 320 596 320 c 5
EndSplineSet
EndChar

StartChar: uni3105
Encoding: 12549 12549 47
Width: 1000
VWidth: 0
Flags: W
HStem: -58 86<514.54 659.851> 482 74<271 710>
LayerCount: 3
Fore
SplineSet
621 -58 m 3
 553 -58 519 -38 401 -13 c 1
 401 -13 401 87 401 87 c 1
 507 55 559 28 624 28 c 3
 675 28 680 117 680 117 c 2
 680 117 710 368 710 481 c 1
 710 481 185 482 185 482 c 1
 185 482 185 552 185 552 c 1
 185 552 288 738 288 738 c 1
 288 738 363 697 363 697 c 1
 363 697 271 556 271 556 c 1
 271 556 731 556 731 556 c 1
 731 556 805 542 805 542 c 1
 805 542 764 98 764 98 c 2
 764 98 753 -58 621 -58 c 3
EndSplineSet
Validated: 1
EndChar

StartChar: uni3106
Encoding: 12550 12550 48
Width: 1000
VWidth: 0
Flags: W
HStem: 486 74<291 677>
LayerCount: 3
Fore
SplineSet
277 438 m 25
 277 438 401 323 401 323 c 18
 431.62890625 294.59375 486.791 252.25 534 213 c 0
 620 141.5 711 82 835 13 c 9
 835 13 777 -66 777 -66 c 17
 659 13 585 61.5 478 158 c 0
 416.798 213.196 400 226 352 272 c 2
 301 319 227 397 227 397 c 25
 227 397 277 438 277 438 c 25
677 485 m 1
 677 485 205 486 205 486 c 1
 205 486 205 556 205 556 c 1
 205 556 308 738 308 738 c 1
 308 738 383 697 383 697 c 1
 383 697 291 560 291 560 c 1
 291 560 713 560 713 560 c 1
 713 560 775 542 775 542 c 1
 760 468 742.924088663 406.100188823 690 324 c 0
 651 263.5 585 196 522 138 c 0
 424 48 318 -2.5 196.5 -59.7998 c 1
 185.5 -38.7998 162 -8 150 14 c 1
 212 35.2002 361 106 455 190 c 0
 518 246 572.5 298.5 615 361 c 0
 663.4326077 432.224423088 677 485 677 485 c 1
EndSplineSet
Validated: 5
EndChar

StartChar: uni3107
Encoding: 12551 12551 49
Width: 1001
VWidth: 0
Flags: W
HStem: 564 84<255 745>
VStem: 171 84<-41 564> 745 86<-41 564>
LayerCount: 3
Fore
SplineSet
171 -41 m 1
 171 -41 171 628 171 628 c 5
 171 628 193 648 193 648 c 5
 193 648 813 648 813 648 c 5
 813 648 831 626 831 626 c 5
 831 626 831 -41 831 -41 c 1
 831 -41 745 -41 745 -41 c 1
 745 -41 745 564 745 564 c 5
 745 564 255 564 255 564 c 5
 255 564 255 -41 255 -41 c 1
 255 -41 171 -41 171 -41 c 1
EndSplineSet
Validated: 1
EndChar

StartChar: uni3108
Encoding: 12552 12552 50
Width: 1000
VWidth: 0
Flags: W
HStem: -37 85<323.087 871> 554 81<282 855>
VStem: 197 85<93.208 554>
LayerCount: 3
Fore
SplineSet
855 635 m 25
 855 554 l 25
 282 554 l 25
 282 214 l 26
 282 165 284 124 305 90 c 0
 324 58 350.937554159 50.1213203436 387 48 c 0
 421 46 498 44 498 44 c 1
 871 48 l 9
 871 -37 l 17
 498 -40 l 1
 498 -40 416 -40 378 -37 c 0
 317.887785595 -32.2542988627 271 -24 237 27 c 0
 197 87 197 139 197 214 c 26
 197 635 l 25
 855 635 l 25
EndSplineSet
Validated: 1
EndChar

StartChar: uni3109
Encoding: 12553 12553 51
Width: 1000
VWidth: 0
Flags: W
HStem: -64 84<578.174 730.302> 486 74<270 414 501 717>
VStem: 717 88<297.304 486>
LayerCount: 3
Fore
SplineSet
414 521 m 9
 414 521 501 516 501 516 c 17
 493 390 477.917 280.5 448 209 c 0
 397.616523978 88.5862374052 333.5 25.7998 241 -57 c 9
 241 -57 170 16 170 16 c 17
 289.5 111.8 315.827363865 144.489665432 364 243 c 0
 392.925 302.15 410 401 414 521 c 9
717 486 m 1
 717 486 184 486 184 486 c 1
 184 486 184 556 184 556 c 1
 184 556 283 738 283 738 c 1
 283 738 362 697 362 697 c 1
 362 697 270 560 270 560 c 1
 270 560 737 560 737 560 c 1
 737 560 805 548 805 548 c 1
 802 422 787 84 787 84 c 26
 787 84 771.266 -64 689 -64 c 3
 616 -64 581.917 -51.5 495 -21 c 9
 495 -21 495 74 495 74 c 17
 585.917 37.5 636 20 667 20 c 3
 697 20 706 114 706 114 c 2
 706 114 717 486 717 486 c 1
EndSplineSet
Validated: 5
EndChar

StartChar: uni310A
Encoding: 12554 12554 52
Width: 1000
VWidth: 0
Flags: W
HStem: 464 83<159 841>
LayerCount: 3
Fore
SplineSet
710 293 m 17
 710 293 780.307 162.921 795.762 134 c 0
 815 98 875 -28 875 -28 c 9
 875 -28 794 -68 794 -68 c 17
 794 -68 735 64 720.116 96 c 0
 706.742649563 124.752164337 640 259 640 259 c 9
 640 259 710 293 710 293 c 17
554 724 m 17
 554 724 510 496 430.167 289.2 c 0
 365.243 121.021 324 66 324 66 c 9
 324 66 765 130 765 130 c 25
 765 130 782 54 782 54 c 25
 782 54 236 -31 236 -31 c 25
 236 -31 209 50 209 50 c 17
 209 50 258 100 353.066 323.2 c 0
 437.735 521.987 474 740 474 740 c 9
 474 740 554 724 554 724 c 17
841 547 m 25
 841 547 841 464 841 464 c 25
 841 464 159 464 159 464 c 25
 159 464 159 547 159 547 c 25
 159 547 841 547 841 547 c 25
EndSplineSet
Validated: 524293
EndChar

StartChar: uni310B
Encoding: 12555 12555 53
Width: 1000
VWidth: 0
Flags: W
HStem: -63 85<464.565 640.665> 323 82<467 739> 330 79<467 739> 603 79<253 615> 610 72<253 615>
LayerCount: 3
Fore
SplineSet
365 323 m 9xc0
 365 323 322 401 322 401 c 25
 322 401 615 610 615 610 c 25xc8
 615 610 253 603 253 603 c 25x90
 253 603 240 682 240 682 c 17
 240 682 730 682 730 682 c 25
 730 682 758 664 758 664 c 9
 758 664 746 601 746 601 c 25
 746 601 467 405 467 405 c 17xc8
 467 405 752 409 752 409 c 9
 752 409 825 393 825 393 c 17
 816 220 794 128 760 54 c 0
 720 -34 652 -63 564 -63 c 3
 494.552 -63 428.5 -41 336 0 c 9
 336 0 336 108 336 108 c 17
 462.5 38 511.71 22 555 22 c 3
 601 22 662 37 692 103 c 0
 716 155 737 254 739 330 c 1xa0
 739 330 365 323 365 323 c 9xc0
EndSplineSet
Validated: 1
EndChar

StartChar: uni310C
Encoding: 12556 12556 54
Width: 1000
VWidth: 0
Flags: W
HStem: -64 84<578.174 730.133> 490 74<270 718>
VStem: 467 81<567.399 737> 718 87<302 490>
LayerCount: 3
Fore
SplineSet
467 739 m 9
 467 739 548 737 548 737 c 17
 545 605 522.917 341.5 491 270 c 0
 437.794 150.807 342 26 241 -57 c 9
 241 -57 170 16 170 16 c 17
 289.5 111.8 358.514 205.643 407 304 c 0
 442 375 466 600 467 739 c 9
718 490 m 1
 718 490 184 490 184 490 c 1
 184 490 184 560 184 560 c 1
 184 560 249 726 249 726 c 1
 249 726 327 697 327 697 c 1
 327 697 270 564 270 564 c 1
 270 564 780 564 780 564 c 1
 780 564 805 545 805 545 c 1
 802 419 787 84 787 84 c 26
 787 84 771.266 -64 689 -64 c 3
 616 -64 581.917 -51.5 495 -21 c 9
 495 -21 495 74 495 74 c 17
 585.917 37.5 636 20 667 20 c 3
 697 20 704 114 704 114 c 2
 704 114 718 490 718 490 c 1
EndSplineSet
Validated: 5
EndChar

StartChar: uni310D
Encoding: 12557 12557 55
Width: 1000
VWidth: 0
LayerCount: 3
Fore
SplineSet
693 724 m 9
 693 724 781 698 781 698 c 17
 753 629 733 572 689 501 c 0
 648 434 648 419 617 365 c 1
 655 307 682 272 716 214 c 0
 761.2890625 136.741210938 786 86 818 3 c 9
 818 3 732 -34 732 -34 c 17
 694 50 674.965820312 101.158203125 635 177 c 0
 597.818359375 247.55859375 559 300 511 366 c 1
 555 439 578 475 610 536 c 0
 653 617 670 661 693 724 c 9
376 727 m 9
 376 727 464 701 464 701 c 17
 436 632 413 575 369 504 c 0
 328 437 328 422 297 368 c 1
 335 310 355 275 388 217 c 0
 432 139 463 79 498 -11 c 9
 498 -11 412 -48 412 -48 c 17
 375 45 345 101 307 180 c 0
 272 253 239 303 191 369 c 1
 235 442 258 478 290 539 c 0
 333 620 353 664 376 727 c 9
EndSplineSet
Validated: 1
EndChar

StartChar: uni310E
Encoding: 12558 12558 56
Width: 1000
VWidth: 0
HStem: -64 81<463.008 613.706> 337 76<397 689> 605 75<183 467 538 823>
LayerCount: 3
Fore
SplineSet
326 337 m 1049,0,-1
538 620 m 25,1,-1
 538 620 397 413 397 413 c 25,4,-1
 397 413 750 413 750 413 c 25,7,-1
 750 413 778 391 778 391 c 17,10,-1
 778 349 759.1953125 205.806640625 749 144 c 0,13,-1
 731.901367188 40.337890625 679 -64 548 -64 c 3,16,-1
 515 -64 495 -55 379 -28 c 9,19,-1
 379 -28 379 68 379 68 c 17,22,-1
 494 28 517 17 553 17 c 3,25,-1
 684 17 683 237 689 340 c 9,28,-1
 689 340 326 337 326 337 c 17,31,-1
 326 337 319 344 319 344 c 25,34,-1
 319 344 300 408 300 408 c 9,37,-1
 300 408 467 657 467 657 c 25,40,-1
 467 657 538 620 538 620 c 25,1,-1
183 680 m 25,43,-1
 183 680 823 680 823 680 c 25,46,-1
 823 680 823 605 823 605 c 25,49,-1
 823 605 183 605 183 605 c 25,52,-1
 183 605 183 680 183 680 c 25,43,-1
EndSplineSet
Validated: 5
EndChar

StartChar: uni310F
Encoding: 12559 12559 57
Width: 1000
VWidth: 0
Flags: W
HStem: 594 73<314 845>
VStem: 232 82<350.575 594>
LayerCount: 3
Fore
SplineSet
232 667 m 1
 232 667 845 667 845 667 c 1
 845 667 845 594 845 594 c 1
 845 594 314 594 314 594 c 1
 314 294 305.524414062 224.05078125 294 174 c 0
 276.16796875 96.5546875 238 15 194 -53 c 1
 194 -53 120 -11 120 -11 c 1
 158 47 197.205078125 116.821289062 216 192 c 0
 232 256 231 337 232 593 c 1
 232 593 232 667 232 667 c 1
EndSplineSet
Validated: 1
EndChar

StartChar: uni3110
Encoding: 12560 12560 58
Width: 1000
VWidth: 0
VStem: 254 80<304.532 652> 671 82<-36 285 363 712>
LayerCount: 3
Fore
SplineSet
254 652 m 1
 254 652 334 652 334 652 c 1
 334 652 334 329 334 329 c 0
 334 329 332 304 332 304 c 1
 332 304 671 363 671 363 c 1
 671 363 671 712 671 712 c 1
 671 712 753 712 753 712 c 1
 753 712 753 -36 753 -36 c 1
 753 -36 671 -36 671 -36 c 1
 671 -36 671 285 671 285 c 1
 671 285 308 215.028320312 308 215.028320312 c 0
 308 215.028320312 266 202 266 202 c 9
 266 202 226 270 226 270 c 17
 233 278 238.251953125 285.255859375 246 300 c 0
 252.479492188 312.329101562 253 322 254 346 c 26
 254 346 254 652 254 652 c 1
EndSplineSet
Validated: 1
EndChar

StartChar: uni3111
Encoding: 12561 12561 59
Width: 1000
VWidth: 0
Flags: W
LayerCount: 3
Fore
SplineSet
587 731 m 9
 587 731 671 700 671 700 c 17
 629 631 601 590 545 523 c 0
 488.009932416 454.815454854 463 426 398 365 c 1
 462 309 493.505163655 276.61456095 552 215 c 0
 627 136 665 86 725 0 c 9
 725 0 631 -34 631 -34 c 25
 578 43 547.801214309 93.588131553 485 163 c 0
 409 247 370 287 290 365 c 17
 367 445 403.318365424 481.743271242 470 563 c 0
 519.635170645 623.484294118 550 671 587 731 c 9
EndSplineSet
Validated: 1
EndChar

StartChar: uni3112
Encoding: 12562 12562 60
Width: 1000
VWidth: 0
Flags: W
HStem: 603 75<173 462 544 833> 603 23<462 544>
VStem: 462 82<-40 626>
LayerCount: 3
Fore
SplineSet
544 626 m 29x60
 544 626 544 -40 544 -40 c 29
 544 -40 462 -40 462 -40 c 29
 462 -40 462 626 462 626 c 29
 462 626 544 626 544 626 c 29x60
173 678 m 29xa0
 173 678 833 678 833 678 c 29
 833 678 833 603 833 603 c 29
 833 603 173 603 173 603 c 29
 173 603 173 678 173 678 c 29xa0
EndSplineSet
Validated: 5
EndChar

StartChar: uni3113
Encoding: 12563 12563 61
Width: 1000
VWidth: 0
Flags: W
HStem: -38 86<147 473 556 882> 24 24<473 556> 228 74<277 752>
VStem: 193 84<302 623> 473 83<24 713> 752 84<302 621>
CounterMasks: 1 1c
LayerCount: 3
Fore
SplineSet
193 623 m 25x3c
 277 623 l 25
 277 302 l 25
 752 302 l 25
 752 621 l 25
 836 621 l 25
 836 228 l 25
 193 228 l 25
 193 623 l 25x3c
473 713 m 25
 556 713 l 25
 556 24 l 29
 473 24 l 29x7c
 473 713 l 25
147 48 m 29xbc
 882 48 l 29
 882 -38 l 29
 147 -38 l 29
 147 48 l 29xbc
EndSplineSet
Validated: 5
EndChar

StartChar: uni3114
Encoding: 12564 12564 62
Width: 1000
VWidth: 0
VStem: 478 82<-64 319>
LayerCount: 3
Fore
SplineSet
560 319 m 25
 560 -64 l 25
 478 -64 l 25
 478 319 l 25
 560 319 l 25
739 520 m 9
 800 456 l 17
 726 397 609 320 519 274 c 24
 424 225 325 183 224 149 c 9
 165 236 l 17
 277 269 400.811523438 320.473632812 505 369 c 0
 578 403 683 476 739 520 c 9
639 745 m 9
 694 683 l 17
 626 630 586 598 504 558 c 0
 407.928710938 511.135742188 384 496 283 459 c 9
 226 541 l 17
 338 573 387 593 488 644 c 0
 550 676 581 701 639 745 c 9
EndSplineSet
Validated: 5
EndChar

StartChar: uni3129
Encoding: 12585 12585 63
Width: 1001
VWidth: 0
Flags: W
HStem: -36 84<266 738>
VStem: 180 86<48 643> 738 84<48 643>
LayerCount: 3
Fore
SplineSet
822 643 m 1
 822 -16 l 5
 800 -36 l 5
 198 -36 l 5
 180 -14 l 5
 180 -14 180 643 180 643 c 1
 180 643 266 643 266 643 c 1
 266 48 l 5
 738 48 l 5
 738 48 738 643 738 643 c 1
 738 643 822 643 822 643 c 1
EndSplineSet
Validated: 1
EndChar

StartChar: uni3115
Encoding: 12565 12565 64
Width: 1000
VWidth: 0
Flags: W
HStem: 353 78<321.534 751> 593 80<240 750>
VStem: 751 80<431 593>
LayerCount: 3
Fore
SplineSet
252 431 m 1
 751 431 l 9
 750 593 l 25
 240 593 l 25
 240 673 l 25
 823 673 l 25
 830 666 l 25
 831 364 l 25
 821 353 l 25
 323 351 l 17
 318 290 311 174 293 116 c 0
 274 54 247 -4 198 -58 c 9
 122 -10 l 17
 171 47 201 104 220 165 c 0
 239 228 240 361 243 425 c 1
 252 431 l 1
EndSplineSet
Validated: 1
EndChar

StartChar: uni3116
Encoding: 12566 12566 65
Width: 1001
VWidth: 0
Flags: W
HStem: -31 78<281 723> 598 77<281 723>
VStem: 195 86<47 598> 723 86<47 598>
LayerCount: 3
Fore
SplineSet
446 466 m 17
 482 429 509 392 539 354 c 0
 566 321 596 283 625 237 c 9
 551 187 l 17
 520 237 501 265 469 308 c 0
 438 349 417 374 384 412 c 9
 446 466 l 17
723 47 m 1
 723 598 l 1
 281 598 l 1
 281 47 l 1
 723 47 l 1
281 47 m 1025
195 -31 m 1
 195 655 l 1
 217 675 l 1
 791 675 l 1
 809 653 l 1
 809 -31 l 1
 195 -31 l 1
EndSplineSet
Validated: 1
EndChar

StartChar: uni312D
Encoding: 12589 12589 66
Width: 1000
VWidth: 0
Flags: W
HStem: 373 74<277 752> 627 86<147 473 556 882> 627 24<473 556>
VStem: 193 84<54 373> 473 83<-38 651> 752 84<52 373>
CounterMasks: 1 1c
LayerCount: 3
Fore
SplineSet
836 52 m 25x9c
 752 52 l 25
 752 373 l 25
 277 373 l 25
 277 54 l 25
 193 54 l 25
 193 447 l 25
 836 447 l 25
 836 52 l 25x9c
556 -38 m 25
 473 -38 l 25
 473 651 l 25
 556 651 l 25xbc
 556 -38 l 25
882 627 m 25xdc
 147 627 l 25
 147 713 l 25
 882 713 l 25
 882 627 l 25xdc
EndSplineSet
Validated: 5
EndChar

StartChar: uni3117
Encoding: 12567 12567 67
Width: 1000
VWidth: 0
Flags: W
HStem: 166 85<645.253 717.343> 585 75<162 363 445 737>
VStem: 363 82<-40 585> 737 81<338.538 585>
LayerCount: 3
Fore
SplineSet
818 643 m 1
 818 585 l 1
 818 585 815 342 802 259 c 0
 795 213 752 166 706 166 c 3
 647 166 525 253 525 253 c 1
 546 283 569 322 574 324 c 1
 574 324 667 251 688 251 c 27
 708 251 720 270 723 289 c 0
 736 361 737 585 737 585 c 1
 445 585 l 1
 445 -40 l 1
 363 -40 l 1
 363 585 l 1
 162 585 l 1
 162 660 l 1
 801 660 l 1
 818 643 l 1
EndSplineSet
Validated: 1
EndChar

StartChar: uni3118
Encoding: 12568 12568 68
Width: 1000
VWidth: 0
Flags: W
HStem: 270 74<429 681> 495 75<165 847>
VStem: 465 80<634.844 731.4>
LayerCount: 3
Fore
SplineSet
333 281 m 1
 334 344 l 1
 368 415 388 445 412 517 c 0
 443 609 465 746 465 746 c 9
 545 730 l 17
 545 730 524 606 494 509 c 0
 475 449 452 402 429 344 c 25
 728 344 l 25
 777 314 l 17
 752 238 731 155 680 88 c 24
 624 14 580 -19 505 -74 c 9
 417 -10 l 17
 491 31 536 50 594 110 c 0
 632 149 662 217 681 270 c 1
 355 270 l 1
 333 281 l 1
847 570 m 25
 847 495 l 25
 165 495 l 25
 165 570 l 25
 847 570 l 25
EndSplineSet
Validated: 5
EndChar

StartChar: uni3119
Encoding: 12569 12569 69
Width: 1000
VWidth: 0
Flags: W
HStem: 673 20G<462.591 527.125>
VStem: 469 93<604.888 663.409>
LayerCount: 3
Fore
SplineSet
640 267 m 9
 710 301 l 17
 710 301 781 171 796 142 c 0
 815 106 875 -10 875 -10 c 9
 794 -50 l 25
 767 9 753 42 725 100 c 24
 693 166 640 267 640 267 c 9
562 661 m 17
 562 661 520 503 434 297 c 0
 364 130 324 74 324 74 c 9
 765 138 l 25
 782 62 l 25
 236 -23 l 25
 209 58 l 17
 209 58 260 107 353 331 c 0
 436 530 469 693 469 693 c 9
 562 661 l 17
EndSplineSet
Validated: 5
EndChar

StartChar: uni3127
Encoding: 12583 12583 70
Width: 1000
VWidth: 0
HStem: 312 85<163 837>
LayerCount: 3
Fore
SplineSet
163 397 m 29
 837 397 l 29
 837 312 l 25
 163 312 l 25
 163 397 l 29
EndSplineSet
Validated: 1
EndChar

StartChar: uni3125
Encoding: 12581 12581 71
Width: 1000
VWidth: 0
Flags: W
HStem: -23 85<321 846> 673 20G<469 469>
LayerCount: 3
Fore
SplineSet
562 661 m 17
 562 661 519.383165354 503.07548664 434.166992188 297.200195312 c 0
 354.148729092 103.882628773 321 62 321 62 c 9
 321 62 846 62 846 62 c 25
 846 62 846 -23 846 -23 c 25
 846 -23 236 -23 236 -23 c 25
 236 -23 209 58 209 58 c 17
 209 58 259.910475086 107.195906796 353.06640625 331.200195312 c 0
 435.735351562 529.987304688 469 693 469 693 c 9
 469 693 562 661 562 661 c 17
EndSplineSet
Validated: 1
EndChar

StartChar: uni311A
Encoding: 12570 12570 72
Width: 1000
VWidth: 0
VStem: 456 90<-40 380>
LayerCount: 3
Fore
SplineSet
179 648 m 1
 243 703 l 1
 501 454 l 1
 759 703 l 1
 823 648 l 1
 546 380 l 1
 546 -40 l 1
 456 -40 l 1
 456 380 l 1
 179 648 l 1
EndSplineSet
Validated: 1
EndChar

StartChar: uni311B
Encoding: 12571 12571 73
Width: 1000
VWidth: 0
Flags: W
HStem: -38 85<387.623 605.485> 352 79<385.603 495> 580 83<159 495 576 841>
VStem: 222 84<123.493 284.259> 495 81<431 580>
LayerCount: 3
Fore
SplineSet
841 663 m 1
 841 580 l 1
 576 580 l 1
 576 350 l 1
 567 351 527 352 491 352 c 0
 409 352 306 313 306 223 c 0
 306 89 383 47 507 47 c 0
 596 47 683 101 742 174 c 1
 818 120 l 1
 755 39 653 -38 515 -38 c 0
 378 -38 222 -2 222 212 c 0
 222 421 456 431 495 431 c 1
 495 580 l 1
 159 580 l 1
 159 663 l 1
 841 663 l 1
EndSplineSet
Validated: 1
EndChar

StartChar: uni311C
Encoding: 12572 12572 74
Width: 1000
VWidth: 0
Flags: W
HStem: -39 82<385.252 599.82> 330 80<388.408 494.386> 534 74<159 495 576 841>
VStem: 229 81<114.957 267.159> 495 81<410 534 608 740>
LayerCount: 3
Fore
SplineSet
495 410 m 1
 495 534 l 1
 159 534 l 1
 159 608 l 1
 495 608 l 1
 495 740 l 1
 576 740 l 1
 576 608 l 1
 841 608 l 1
 841 534 l 1
 576 534 l 1
 576 324 l 1
 567 325 527 330 491 330 c 0
 409 330 310 294 310 207 c 0
 310 76 390 43 509 43 c 0
 594 43 679 101 738 174 c 1
 811 122 l 1
 750 40 653 -39 516 -39 c 0
 383 -39 229 -3 229 198 c 0
 229 402 457 410 495 410 c 1
EndSplineSet
Validated: 1
EndChar

StartChar: uni311D
Encoding: 12573 12573 75
Width: 1000
VWidth: 0
Flags: W
HStem: -37 85<426.909 754> 422 80<138 842>
VStem: 278 85<110.349 722> 573 87<184.713 292.098> 602 88<221.569 648.063> 610 86<504.297 726>
LayerCount: 3
Fore
SplineSet
690 379 m 24xe8
 688 329 683 301 676 251 c 24
 671 221 660 170 660 170 c 9
 573 186 l 17xf0
 573 186 585 242 590 275 c 24
 596 323 600 350 602 398 c 24xe8
 608 527 610 730 610 730 c 9
 696 726 l 17xe4
 696 726 696 514 690 379 c 24xe8
138 502 m 25
 842 502 l 25
 842 422 l 25
 138 422 l 25
 138 502 l 25
359 722 m 25
 363 248 l 26
 363 199 363 154 383 113 c 0
 399 80 443 52 492 48 c 0
 529 45 617 44 617 44 c 1
 754 48 l 9
 754 -37 l 17
 614 -40 l 1
 614 -40 522 -39 483 -37 c 0
 409 -32 347 -3 315 50 c 0
 279 110 278 173 278 248 c 26
 274 722 l 25
 359 722 l 25
EndSplineSet
Validated: 5
EndChar

StartChar: uni311E
Encoding: 12574 12574 76
Width: 1000
VWidth: 0
Flags: W
HStem: 312 83<279 756> 591 83<173 269 350 532 622 852>
LayerCount: 3
Fore
SplineSet
467 339 m 0
 499 414 532 634 532 634 c 25
 622 622 l 25
 622 622 581 410 555 330 c 0
 511 192 421 86 297 -23 c 9
 214 38 l 17
 336 143 407 200 467 339 c 0
269 628 m 25
 350 611 l 25
 279 395 l 25
 816 396 l 25
 856 375 l 17
 844 297 827 211 806 148 c 0
 785 86 760 38 722 -29 c 9
 631 17 l 17
 670 70 678 83 713 154 c 0
 735 198 748 269 756 313 c 9
 191 312 l 25
 190 375 l 25
 269 628 l 25
173 674 m 25
 852 674 l 25
 852 591 l 25
 173 591 l 25
 173 674 l 25
EndSplineSet
Validated: 5
EndChar

StartChar: uni311F
Encoding: 12575 12575 77
Width: 1000
VWidth: 0
HStem: 487 21G<168.8 236.286>
LayerCount: 3
Fore
SplineSet
127 562 m 25
 392 662 l 1
 425 652 l 1
 473 536 532.317382812 413.7265625 594 331 c 0
 715.922851562 167.481445312 811 94 889 33 c 5
 812 -39 l 1
 739 13 658.733398438 83.4921875 545 243 c 0
 484.706054688 327.560546875 411 467 367 557 c 1
 184 487 l 1
 127 562 l 25
EndSplineSet
Validated: 1
EndChar

StartChar: uni3121
Encoding: 12577 12577 78
Width: 1000
VWidth: 0
Flags: W
HStem: 598 75<229 640>
LayerCount: 3
Fore
SplineSet
243 476 m 9
 243 476 307 515 307 515 c 17
 387 387 473.981445312 295.131835938 533 238 c 0
 613.357123033 160.211751985 716 82 840 13 c 9
 840 13 782 -66 782 -66 c 17
 664 13 586.541157559 80.7977785857 483 181 c 0
 420.797851562 241.196289062 330 337 243 476 c 9
677 673 m 1
 739 655 l 1
 727 581 706.07421875 401.932617188 531 183 c 0
 423.767027056 48.9037545164 322 -2.5 201.5 -59.7998046875 c 1
 190.5 -38.7998046875 168 -2 156 20 c 1
 218 49.2001953125 362.98828125 99.140625 472 235 c 0
 633.368164062 436.110351562 640 597 640 597 c 1
 229 598 l 1
 229 673 l 1
 677 673 l 1
EndSplineSet
Validated: 5
EndChar

StartChar: uni3120
Encoding: 12576 12576 79
Width: 1000
VWidth: 0
Flags: W
LayerCount: 3
Fore
SplineSet
442 727 m 9
 520 671 l 17
 485 611 446 559 404 504 c 0
 357 443 277 361 277 361 c 1
 423 368 l 0
 557 376 l 9
 562 314 l 17
 410 298 l 0
 204 278 l 9
 176 364 l 17
 224 407 280.743164062 477.657226562 332 546 c 0
 377 606 442 727 442 727 c 9
658 229 m 9
 728 263 l 17
 728 263 785 172 800 143 c 0
 819 107 869 -7 869 -7 c 9
 788 -50 l 17
 788 -50 752 51 729 98 c 24
 707 143 658 229 658 229 c 9
710 610 m 9
 791 554 l 17
 791 554 662.960347063 381.164992372 558 271 c 0
 437 144 325 56 325 56 c 1
 526 96 l 0
 760 153 l 9
 786 81 l 17
 519 12 l 0
 229 -46 l 9
 173 51 l 17
 173 51 396 230 490 327 c 0
 598.885612062 439.360684787 710 610 710 610 c 9
EndSplineSet
Validated: 5
EndChar

StartChar: uni3128
Encoding: 12584 12584 80
Width: 1000
VWidth: 0
Flags: W
LayerCount: 3
Fore
SplineSet
256 614 m 17
 372 521 449 442 559 337 c 24
 676 224 742 159 851 38 c 9
 782 -17 l 17
 682 103 616 168 505 279 c 0
 392 392 318 451 203 552 c 9
 256 614 l 17
449 296 m 0
 566 420 657 544 723 661 c 9
 797 618 l 17
 725 494 631 366 504 233 c 0
 404 128 326 60 198 -31 c 9
 144 38 l 17
 278 131 349 191 449 296 c 0
EndSplineSet
Validated: 5
EndChar

StartChar: uni3123
Encoding: 12579 12579 81
Width: 1000
VWidth: 0
Flags: W
HStem: 335 83<284 407> 354 79<554.933 743>
VStem: 743 98<270.209 354>
LayerCount: 3
Fore
SplineSet
190 416 m 1xa0
 224 488 235 540 250 592 c 0
 269 657 283 725 283 725 c 9
 369 680 l 17
 369 680 351 624 328 561 c 0
 311 516 298 452 284 418 c 9xa0
 792 433 l 25
 841 395 l 17
 839 339 814 237 779 139 c 0
 756 74 733 26 679 -57 c 9
 602 -9 l 17
 650 64 666 95 694 161 c 0
 737 262 741 310 743 354 c 1x60
 211 335 l 1
 190 416 l 1xa0
EndSplineSet
Validated: 1
EndChar

StartChar: uni3122
Encoding: 12578 12578 82
Width: 1000
VWidth: 0
Flags: W
HStem: 586 78<171 289 379 650>
VStem: 749 94<207.628 269>
LayerCount: 3
Fore
SplineSet
650 586 m 1
 171 586 l 1
 156 662 l 1
 697 664 l 1
 762 643 l 1
 755 608 729 536 706 470 c 24
 686 415 655 291 655 291 c 9
 568 291 l 25
 588 346 603 426 622 481 c 24
 637 524 650 586 650 586 c 1
198 323 m 1
 219 395 235 458 250 510 c 0
 269 575 289 649 289 649 c 9
 379 615 l 17
 379 615 348 551 325 488 c 0
 308 443 297 359 290 325 c 9
 794 348 l 25
 843 310 l 17
 841 261 825 206 787 118 c 0
 771 80 729 9 662 -64 c 9
 590 -9 l 17
 645 46 691.795062481 107.590124962 708 140 c 0
 742 208 747 225 749 269 c 1
 221 242 l 1
 198 323 l 1
EndSplineSet
Validated: 5
EndChar

StartChar: uni3126
Encoding: 12582 12582 83
Width: 1000
VWidth: 0
HStem: -32 82<672.639 828.123>
VStem: 339 87<435.409 678> 568 86<69.8495 358.355> 579 89<424.314 676>
LayerCount: 3
Fore
SplineSet
568 97 m 3xe0
 568 194 579 365 579 474 c 3
 579 542 578 645 578 690 c 9
 668 676 l 17xd0
 668 616 654 275 654 129 c 3
 654 56 690 50 800 50 c 3
 821 50 833 80 833 80 c 25
 890 36 l 17
 882 9 869 -32 772 -32 c 3
 590 -32 568 12 568 97 c 3xe0
339 688 m 9
 426 678 l 17
 421 541 418 275 400 198 c 0
 380.780477309 115.783152932 308 19 229 -44 c 9
 148 20 l 17
 219 71 297.9296875 147.649414062 318 224 c 0
 337.732421875 299.065429688 338.326171875 632.845703125 339 688 c 9
EndSplineSet
Validated: 1
EndChar

StartChar: uni3124
Encoding: 12580 12580 84
Width: 1000
VWidth: 0
Flags: W
HStem: -36 80<625.937 868.364> 452 83<170 546 622 830>
VStem: 517 85<66.4973 354.906>
LayerCount: 3
Fore
SplineSet
830 535 m 25
 830 452 l 25
 170 452 l 25
 170 535 l 25
 830 535 l 25
771 -36 m 3
 569 -36 517 -3 517 93 c 3
 517 190 525.673828125 236.157226562 533 327 c 0
 538 389 544 460 546 497 c 9
 622 478 l 17
 618 418 602 264 602 118 c 3
 602 45 665 44 775 44 c 3
 796 44 843 50 867 56 c 9
 877 -22 l 17
 860 -26 828 -36 771 -36 c 3
438 741 m 9
 526 725 l 17
 519 619 516 408 471 279 c 0
 429.828454514 160.974902941 333 28 207 -44 c 9
 146 30 l 17
 258 87 352.149380897 196.779446412 395 312 c 0
 440 433 436 629 438 741 c 9
EndSplineSet
Validated: 5
EndChar

StartChar: uni02CA
Encoding: 714 714 85
Width: 1000
VWidth: 0
Flags: W
HStem: 375 211
VStem: 384 222
LayerCount: 3
Fore
SplineSet
562 586 m 1
 562 586 606 542 606 542 c 1
 606 542 432 375 432 375 c 1
 432 375 384 428 384 428 c 1
 384 428 562 586 562 586 c 1
EndSplineSet
Validated: 1
EndChar

StartChar: uni02CB
Encoding: 715 715 86
Width: 1000
VWidth: 0
Flags: W
LayerCount: 3
Fore
SplineSet
429 586 m 1
 429 586 383 533 383 533 c 1
 383 533 567 379 567 379 c 1
 567 379 607 428 607 428 c 1
 607 428 429 586 429 586 c 1
EndSplineSet
Validated: 9
EndChar

StartChar: exclam
Encoding: 33 33 88
Width: 269
GlyphClass: 2
Flags: W
LayerCount: 3
Fore
SplineSet
164 202 m 1
 105 202 l 1
 80 714 l 1
 189 714 l 1
 164 202 l 1
72 54 m 0
 72 66.6666666667 73.6666666667 77.3333333333 77 86 c 128
 80.3333333333 94.6666666667 84.6666666667 101.666666667 90 107 c 128
 95.3333333333 112.333333333 101.833333333 116.166666667 109.5 118.5 c 128
 117.166666667 120.833333333 125.333333333 122 134 122 c 256
 142.666666667 122 150.666666667 120.833333333 158 118.5 c 128
 165.333333333 116.166666667 171.833333333 112.333333333 177.5 107 c 128
 183.166666667 101.666666667 187.666666667 94.6666666667 191 86 c 128
 194.333333333 77.3333333333 196 66.6666666667 196 54 c 0
 196 42 194.333333333 31.6666666667 191 23 c 128
 187.666666667 14.3333333333 183.166666667 7.33333333333 177.5 2 c 128
 171.833333333 -3.33333333333 165.166666667 -7.33333333333 157.5 -10 c 128
 149.833333333 -12.6666666667 142 -14 134 -14 c 0
 125.333333333 -14 117.166666667 -12.6666666667 109.5 -10 c 128
 101.833333333 -7.33333333333 95.3333333333 -3.33333333333 90 2 c 128
 84.6666666667 7.33333333333 80.3333333333 14.3333333333 77 23 c 128
 73.6666666667 31.6666666667 72 42 72 54 c 0
EndSplineSet
Validated: 524289
EndChar

StartChar: quotedbl
Encoding: 34 34 89
Width: 401
GlyphClass: 2
Flags: W
LayerCount: 3
Fore
SplineSet
161 714 m 1
 141 456 l 1
 85 456 l 1
 65 714 l 1
 161 714 l 1
337 714 m 1
 317 456 l 1
 261 456 l 1
 241 714 l 1
 337 714 l 1
EndSplineSet
Validated: 1
EndChar

StartChar: numbersign
Encoding: 35 35 90
Width: 645
GlyphClass: 2
Flags: W
LayerCount: 3
Fore
SplineSet
480 436 m 1
 449 276 l 1
 586 276 l 1
 586 209 l 1
 436 209 l 1
 396 0 l 1
 324 0 l 1
 365 209 l 1
 223 209 l 1
 183 0 l 1
 113 0 l 1
 151 209 l 1
 25 209 l 1
 25 276 l 1
 164 276 l 1
 196 436 l 1
 62 436 l 1
 62 503 l 1
 208 503 l 1
 248 714 l 1
 320 714 l 1
 280 503 l 1
 423 503 l 1
 464 714 l 1
 534 714 l 1
 493 503 l 1
 621 503 l 1
 621 436 l 1
 480 436 l 1
236 276 m 1
 378 276 l 1
 409 436 l 1
 267 436 l 1
 236 276 l 1
EndSplineSet
Validated: 1
EndChar

StartChar: dollar
Encoding: 36 36 91
Width: 550
GlyphClass: 2
Flags: W
LayerCount: 3
Fore
SplineSet
481 218 m 0
 481 195.333333333 477 174.666666667 469 156 c 128
 461 137.333333333 449.333333333 121.166666667 434 107.5 c 128
 418.666666667 93.8333333333 400.166666667 82.5 378.5 73.5 c 128
 356.833333333 64.5 332.333333333 58 305 54 c 1
 305 -58 l 1
 238 -58 l 1
 238 50 l 1
 222 50 205.666666667 50.6666666667 189 52 c 128
 172.333333333 53.3333333333 156.166666667 55.5 140.5 58.5 c 128
 124.833333333 61.5 110.166666667 65.1666666667 96.5 69.5 c 128
 82.8333333333 73.8333333333 70.6666666667 78.6666666667 60 84 c 1
 60 168 l 1
 70.6666666667 162.666666667 83.1666666667 157.333333333 97.5 152 c 128
 111.833333333 146.666666667 126.833333333 141.833333333 142.5 137.5 c 128
 158.166666667 133.166666667 174.166666667 129.666666667 190.5 127 c 128
 206.833333333 124.333333333 222.666666667 123 238 123 c 1
 238 335 l 1
 209.333333333 345 184.166666667 355.333333333 162.5 366 c 128
 140.833333333 376.666666667 123 388.833333333 109 402.5 c 128
 95 416.166666667 84.6666666667 432 78 450 c 128
 71.3333333333 468 68 489 68 513 c 0
 68 535 72 555 80 573 c 128
 88 591 99.3333333333 606.833333333 114 620.5 c 128
 128.666666667 634.166666667 146.5 645.333333333 167.5 654 c 128
 188.5 662.666666667 212 668.333333333 238 671 c 1
 238 759 l 1
 305 759 l 1
 305 673 l 1
 337.666666667 671.666666667 367.833333333 667.5 395.5 660.5 c 128
 423.166666667 653.5 447.666666667 645 469 635 c 1
 437 564 l 1
 419 572 398.5 579.333333333 375.5 586 c 128
 352.5 592.666666667 329 597 305 599 c 1
 305 393 l 1
 333.666666667 383 359 372.666666667 381 362 c 128
 403 351.333333333 421.333333333 339.166666667 436 325.5 c 128
 450.666666667 311.833333333 461.833333333 296.333333333 469.5 279 c 128
 477.166666667 261.666666667 481 241.333333333 481 218 c 0
395 218 m 0
 395 228.666666667 393.333333333 238.5 390 247.5 c 128
 386.666666667 256.5 381.5 264.666666667 374.5 272 c 128
 367.5 279.333333333 358.333333333 286 347 292 c 128
 335.666666667 298 321.666666667 304 305 310 c 1
 305 128 l 1
 335 132.666666667 357.5 143 372.5 159 c 128
 387.5 175 395 194.666666667 395 218 c 0
154 512 m 0
 154 500 155.333333333 489.5 158 480.5 c 128
 160.666666667 471.5 165.333333333 463.166666667 172 455.5 c 128
 178.666666667 447.833333333 187.333333333 440.833333333 198 434.5 c 128
 208.666666667 428.166666667 222 422.333333333 238 417 c 1
 238 597 l 1
 209.333333333 591.666666667 188.166666667 581.833333333 174.5 567.5 c 128
 160.833333333 553.166666667 154 534.666666667 154 512 c 0
EndSplineSet
Validated: 524289
EndChar

StartChar: percent
Encoding: 37 37 92
Width: 825
GlyphClass: 2
Flags: W
LayerCount: 3
Fore
SplineSet
122 501 m 256
 122 447 127.833333333 406.666666667 139.5 380 c 128
 151.166666667 353.333333333 170 340 196 340 c 0
 246.666666667 340 272 393.666666667 272 501 c 0
 272 607.666666667 246.666666667 661 196 661 c 0
 170 661 151.166666667 647.833333333 139.5 621.5 c 128
 127.833333333 595.166666667 122 555 122 501 c 256
344 501 m 256
 344 465.666666667 341.166666667 434 335.5 406 c 128
 329.833333333 378 321 354.5 309 335.5 c 128
 297 316.5 281.5 301.833333333 262.5 291.5 c 128
 243.5 281.166666667 221.333333333 276 196 276 c 0
 172 276 150.833333333 281.166666667 132.5 291.5 c 128
 114.166666667 301.833333333 98.8333333333 316.5 86.5 335.5 c 128
 74.1666666667 354.5 65 378 59 406 c 128
 53 434 50 465.666666667 50 501 c 256
 50 536.333333333 52.8333333333 567.833333333 58.5 595.5 c 128
 64.1666666667 623.166666667 73 646.5 85 665.5 c 128
 97 684.5 112.166666667 699 130.5 709 c 128
 148.833333333 719 170.666666667 724 196 724 c 0
 220.666666667 724 242.166666667 719 260.5 709 c 128
 278.833333333 699 294.166666667 684.5 306.5 665.5 c 128
 318.833333333 646.5 328.166666667 623.166666667 334.5 595.5 c 128
 340.833333333 567.833333333 344 536.333333333 344 501 c 256
553 215 m 256
 553 161 558.833333333 120.666666667 570.5 94 c 128
 582.166666667 67.3333333333 601 54 627 54 c 0
 677.666666667 54 703 107.666666667 703 215 c 0
 703 321.666666667 677.666666667 375 627 375 c 0
 601 375 582.166666667 361.833333333 570.5 335.5 c 128
 558.833333333 309.166666667 553 269 553 215 c 256
775 215 m 256
 775 179.666666667 772.166666667 148.166666667 766.5 120.5 c 128
 760.833333333 92.8333333333 752 69.3333333333 740 50 c 128
 728 30.6666666667 712.666666667 15.8333333333 694 5.5 c 128
 675.333333333 -4.83333333333 653 -10 627 -10 c 0
 603 -10 581.833333333 -4.83333333333 563.5 5.5 c 128
 545.166666667 15.8333333333 530 30.6666666667 518 50 c 128
 506 69.3333333333 496.833333333 92.8333333333 490.5 120.5 c 128
 484.166666667 148.166666667 481 179.666666667 481 215 c 256
 481 250.333333333 483.833333333 281.833333333 489.5 309.5 c 128
 495.166666667 337.166666667 504 360.5 516 379.5 c 128
 528 398.5 543.166666667 413 561.5 423 c 128
 579.833333333 433 601.666666667 438 627 438 c 0
 651.666666667 438 673.166666667 433 691.5 423 c 128
 709.833333333 413 725.166666667 398.5 737.5 379.5 c 128
 749.833333333 360.5 759.166666667 337.166666667 765.5 309.5 c 128
 771.833333333 281.833333333 775 250.333333333 775 215 c 256
650 714 m 1
 254 0 l 1
 177 0 l 1
 573 714 l 1
 650 714 l 1
EndSplineSet
Validated: 524289
EndChar

StartChar: ampersand
Encoding: 38 38 93
Width: 702
GlyphClass: 2
Flags: W
LayerCount: 3
Fore
SplineSet
206 569 m 0
 206 557.666666667 207.333333333 546.833333333 210 536.5 c 128
 212.666666667 526.166666667 216.666666667 515.666666667 222 505 c 128
 227.333333333 494.333333333 234.166666667 483.5 242.5 472.5 c 128
 250.833333333 461.5 261 450 273 438 c 1
 292.333333333 449.333333333 309 460 323 470 c 128
 337 480 348.5 490.333333333 357.5 501 c 128
 366.5 511.666666667 373.333333333 522.666666667 378 534 c 128
 382.666666667 545.333333333 385 557.666666667 385 571 c 0
 385 583 383 593.833333333 379 603.5 c 128
 375 613.166666667 369.166666667 621.666666667 361.5 629 c 128
 353.833333333 636.333333333 344.5 642 333.5 646 c 128
 322.5 650 310.333333333 652 297 652 c 0
 269 652 246.833333333 644.833333333 230.5 630.5 c 128
 214.166666667 616.166666667 206 595.666666667 206 569 c 0
272 69 m 0
 290.666666667 69 308 70.8333333333 324 74.5 c 128
 340 78.1666666667 354.833333333 83.3333333333 368.5 90 c 128
 382.166666667 96.6666666667 394.833333333 104.333333333 406.5 113 c 128
 418.166666667 121.666666667 429.333333333 131 440 141 c 1
 251 340 l 1
 234.333333333 329.333333333 219.5 318.833333333 206.5 308.5 c 128
 193.5 298.166666667 182.5 287.166666667 173.5 275.5 c 128
 164.5 263.833333333 157.666666667 251 153 237 c 128
 148.333333333 223 146 207 146 189 c 0
 146 171.666666667 148.833333333 155.5 154.5 140.5 c 128
 160.166666667 125.5 168.333333333 112.666666667 179 102 c 128
 189.666666667 91.3333333333 202.833333333 83.1666666667 218.5 77.5 c 128
 234.166666667 71.8333333333 252 69 272 69 c 0
53 186 m 0
 53 211.333333333 56.3333333333 234 63 254 c 128
 69.6666666667 274 79.1666666667 292.166666667 91.5 308.5 c 128
 103.833333333 324.833333333 119.166666667 340 137.5 354 c 128
 155.833333333 368 176.333333333 381.666666667 199 395 c 1
 189 407 179.166666667 419.166666667 169.5 431.5 c 128
 159.833333333 443.833333333 151.333333333 457.166666667 144 471.5 c 128
 136.666666667 485.833333333 130.666666667 501 126 517 c 128
 121.333333333 533 119 550.333333333 119 569 c 0
 119 593.666666667 123.166666667 615.666666667 131.5 635 c 128
 139.833333333 654.333333333 151.5 670.666666667 166.5 684 c 128
 181.5 697.333333333 200.333333333 707.5 223 714.5 c 128
 245.666666667 721.5 271.333333333 725 300 725 c 0
 327.333333333 725 351.5 721.5 372.5 714.5 c 128
 393.5 707.5 411.5 697.333333333 426.5 684 c 128
 441.5 670.666666667 452.833333333 654.166666667 460.5 634.5 c 128
 468.166666667 614.833333333 472 593 472 569 c 0
 472 548.333333333 468 529 460 511 c 128
 452 493 441.166666667 476.5 427.5 461.5 c 128
 413.833333333 446.5 398.166666667 432.5 380.5 419.5 c 128
 362.833333333 406.5 344 394.333333333 324 383 c 1
 496 201 l 1
 504.666666667 210.333333333 512.5 220 519.5 230 c 128
 526.5 240 532.833333333 250.5 538.5 261.5 c 128
 544.166666667 272.5 549.166666667 284.333333333 553.5 297 c 128
 557.833333333 309.666666667 561.666666667 323.666666667 565 339 c 1
 655 339 l 1
 650.333333333 317.666666667 644.5 297.833333333 637.5 279.5 c 128
 630.5 261.166666667 622.833333333 244.166666667 614.5 228.5 c 128
 606.166666667 212.833333333 596.666666667 198 586 184 c 128
 575.333333333 170 563.666666667 156.333333333 551 143 c 1
 686 0 l 1
 576 0 l 1
 494 84 l 1
 478 69.3333333333 462.166666667 56.1666666667 446.5 44.5 c 128
 430.833333333 32.8333333333 414.333333333 23 397 15 c 128
 379.666666667 7 360.833333333 0.833333333333 340.5 -3.5 c 128
 320.166666667 -7.83333333333 297.333333333 -10 272 -10 c 0
 238 -10 207.333333333 -5.66666666667 180 3 c 128
 152.666666667 11.6666666667 129.666666667 24.3333333333 111 41 c 128
 92.3333333333 57.6666666667 78 78.1666666667 68 102.5 c 128
 58 126.833333333 53 154.666666667 53 186 c 0
EndSplineSet
Validated: 524289
EndChar

StartChar: quotesingle
Encoding: 39 39 94
Width: 226
GlyphClass: 2
Flags: W
LayerCount: 3
Fore
SplineSet
161 714 m 1
 141 456 l 1
 85 456 l 1
 65 714 l 1
 161 714 l 1
EndSplineSet
Validated: 1
EndChar

StartChar: parenleft
Encoding: 40 40 95
Width: 300
GlyphClass: 2
Flags: W
LayerCount: 3
Fore
SplineSet
40 274 m 256
 40 314.666666667 43 354.833333333 49 394.5 c 128
 55 434.166666667 64 472.5 76 509.5 c 128
 88 546.5 103.166666667 582.166666667 121.5 616.5 c 128
 139.833333333 650.833333333 161.666666667 683.333333333 187 714 c 1
 271 714 l 1
 225.666666667 651.333333333 191.166666667 582.333333333 167.5 507 c 128
 143.833333333 431.666666667 132 354.333333333 132 275 c 0
 132 236.333333333 135 197.833333333 141 159.5 c 128
 147 121.166666667 155.833333333 83.5 167.5 46.5 c 128
 179.166666667 9.5 193.5 -26.1666666667 210.5 -60.5 c 128
 227.5 -94.8333333333 247.333333333 -127.333333333 270 -158 c 1
 187 -158 l 1
 161.666666667 -128.666666667 139.833333333 -97.3333333333 121.5 -64 c 128
 103.166666667 -30.6666666667 88 4.33333333333 76 41 c 128
 64 77.6666666667 55 115.5 49 154.5 c 128
 43 193.5 40 233.333333333 40 274 c 256
EndSplineSet
Validated: 524289
EndChar

StartChar: parenright
Encoding: 41 41 96
Width: 300
GlyphClass: 2
Flags: W
LayerCount: 3
Fore
SplineSet
261 274 m 256
 261 233.333333333 258.166666667 193.5 252.5 154.5 c 128
 246.833333333 115.5 237.833333333 77.6666666667 225.5 41 c 128
 213.166666667 4.33333333333 197.833333333 -30.6666666667 179.5 -64 c 128
 161.166666667 -97.3333333333 139.333333333 -128.666666667 114 -158 c 1
 31 -158 l 1
 53.6666666667 -127.333333333 73.5 -94.8333333333 90.5 -60.5 c 128
 107.5 -26.1666666667 121.833333333 9.5 133.5 46.5 c 128
 145.166666667 83.5 154 121.166666667 160 159.5 c 128
 166 197.833333333 169 236.333333333 169 275 c 0
 169 354.333333333 157.333333333 431.666666667 134 507 c 128
 110.666666667 582.333333333 76 651.333333333 30 714 c 1
 114 714 l 1
 139.333333333 684 161.166666667 651.666666667 179.5 617 c 128
 197.833333333 582.333333333 213.166666667 546.5 225.5 509.5 c 128
 237.833333333 472.5 246.833333333 434.166666667 252.5 394.5 c 128
 258.166666667 354.833333333 261 314.666666667 261 274 c 256
EndSplineSet
Validated: 524289
EndChar

StartChar: asterisk
Encoding: 42 42 97
Width: 550
GlyphClass: 2
Flags: W
LayerCount: 3
Fore
SplineSet
324 760 m 1
 303 568 l 1
 497 622 l 1
 510 528 l 1
 325 514 l 1
 445 355 l 1
 358 308 l 1
 272 483 l 1
 195 308 l 1
 105 355 l 1
 223 514 l 1
 40 528 l 1
 54 622 l 1
 245 568 l 1
 224 760 l 1
 324 760 l 1
EndSplineSet
Validated: 1
EndChar

StartChar: plus
Encoding: 43 43 98
Width: 550
GlyphClass: 2
Flags: W
LayerCount: 3
Fore
SplineSet
239 316 m 1
 50 316 l 1
 50 389 l 1
 239 389 l 1
 239 579 l 1
 312 579 l 1
 312 389 l 1
 501 389 l 1
 501 316 l 1
 312 316 l 1
 312 128 l 1
 239 128 l 1
 239 316 l 1
EndSplineSet
Validated: 1
EndChar

StartChar: comma
Encoding: 44 44 99
Width: 250
GlyphClass: 2
Flags: W
LayerCount: 3
Fore
SplineSet
177 116 m 1
 184 105 l 1
 179.333333333 87.6666666667 173.833333333 69 167.5 49 c 128
 161.166666667 29 154.166666667 8.83333333333 146.5 -11.5 c 128
 138.833333333 -31.8333333333 130.833333333 -52 122.5 -72 c 128
 114.166666667 -92 106 -111 98 -129 c 1
 31 -129 l 1
 35.6666666667 -109 40.3333333333 -88.3333333333 45 -67 c 128
 49.6666666667 -45.6666666667 54.1666666667 -24.3333333333 58.5 -3 c 128
 62.8333333333 18.3333333333 66.8333333333 39.1666666667 70.5 59.5 c 128
 74.1666666667 79.8333333333 77.3333333333 98.6666666667 80 116 c 1
 177 116 l 1
EndSplineSet
Validated: 524289
EndChar

StartChar: hyphen
Encoding: 45 45 100
Width: 321
GlyphClass: 2
Flags: W
LayerCount: 3
Fore
SplineSet
40 227 m 1
 40 309 l 1
 282 309 l 1
 282 227 l 1
 40 227 l 1
EndSplineSet
Validated: 1
EndChar

StartChar: period
Encoding: 46 46 101
Width: 268
GlyphClass: 2
Flags: W
LayerCount: 3
Fore
SplineSet
72 54 m 0
 72 66.6666666667 73.6666666667 77.3333333333 77 86 c 128
 80.3333333333 94.6666666667 84.6666666667 101.666666667 90 107 c 128
 95.3333333333 112.333333333 101.833333333 116.166666667 109.5 118.5 c 128
 117.166666667 120.833333333 125.333333333 122 134 122 c 256
 142.666666667 122 150.666666667 120.833333333 158 118.5 c 128
 165.333333333 116.166666667 171.833333333 112.333333333 177.5 107 c 128
 183.166666667 101.666666667 187.666666667 94.6666666667 191 86 c 128
 194.333333333 77.3333333333 196 66.6666666667 196 54 c 0
 196 42 194.333333333 31.6666666667 191 23 c 128
 187.666666667 14.3333333333 183.166666667 7.33333333333 177.5 2 c 128
 171.833333333 -3.33333333333 165.166666667 -7.33333333333 157.5 -10 c 128
 149.833333333 -12.6666666667 142 -14 134 -14 c 0
 125.333333333 -14 117.166666667 -12.6666666667 109.5 -10 c 128
 101.833333333 -7.33333333333 95.3333333333 -3.33333333333 90 2 c 128
 84.6666666667 7.33333333333 80.3333333333 14.3333333333 77 23 c 128
 73.6666666667 31.6666666667 72 42 72 54 c 0
EndSplineSet
Validated: 524289
EndChar

StartChar: slash
Encoding: 47 47 102
Width: 373
GlyphClass: 2
Flags: W
LayerCount: 3
Fore
SplineSet
363 714 m 1
 97 0 l 1
 10 0 l 1
 276 714 l 1
 363 714 l 1
EndSplineSet
Validated: 1
EndChar

StartChar: zero
Encoding: 48 48 103
Width: 550
GlyphClass: 2
Flags: W
LayerCount: 3
Fore
SplineSet
504 358 m 0
 504 300.666666667 499.833333333 249.166666667 491.5 203.5 c 128
 483.166666667 157.833333333 469.833333333 119.166666667 451.5 87.5 c 128
 433.166666667 55.8333333333 409.5 31.6666666667 380.5 15 c 128
 351.5 -1.66666666667 316.333333333 -10 275 -10 c 0
 236.333333333 -10 202.833333333 -1.66666666667 174.5 15 c 128
 146.166666667 31.6666666667 122.666666667 55.8333333333 104 87.5 c 128
 85.3333333333 119.166666667 71.3333333333 157.666666667 62 203 c 128
 52.6666666667 248.333333333 48 300 48 358 c 256
 48 415.333333333 52.1666666667 466.833333333 60.5 512.5 c 128
 68.8333333333 558.166666667 82 596.666666667 100 628 c 128
 118 659.333333333 141.333333333 683.333333333 170 700 c 128
 198.666666667 716.666666667 233.666666667 725 275 725 c 0
 313.666666667 725 347.333333333 716.833333333 376 700.5 c 128
 404.666666667 684.166666667 428.5 660.333333333 447.5 629 c 128
 466.5 597.666666667 480.666666667 559.166666667 490 513.5 c 128
 499.333333333 467.833333333 504 416 504 358 c 0
138 358 m 256
 138 309.333333333 140.5 266.666666667 145.5 230 c 128
 150.5 193.333333333 158.333333333 163 169 139 c 128
 179.666666667 115 193.666666667 96.8333333333 211 84.5 c 128
 228.333333333 72.1666666667 249.666666667 66 275 66 c 256
 300.333333333 66 321.666666667 72 339 84 c 128
 356.333333333 96 370.666666667 114 382 138 c 128
 393.333333333 162 401.5 192.333333333 406.5 229 c 128
 411.5 265.666666667 414 308.666666667 414 358 c 0
 414 406.666666667 411.5 449.333333333 406.5 486 c 128
 401.5 522.666666667 393.333333333 553 382 577 c 128
 370.666666667 601 356.166666667 619 338.5 631 c 128
 320.833333333 643 299.666666667 649 275 649 c 256
 249.666666667 649 228.333333333 643 211 631 c 128
 193.666666667 619 179.666666667 601 169 577 c 128
 158.333333333 553 150.5 522.666666667 145.5 486 c 128
 140.5 449.333333333 138 406.666666667 138 358 c 256
EndSplineSet
Validated: 524289
EndChar

StartChar: one
Encoding: 49 49 104
Width: 550
GlyphClass: 2
Flags: W
LayerCount: 3
Fore
SplineSet
347 0 m 1
 261 0 l 1
 261 446 l 2
 261 460 261.166666667 475 261.5 491 c 128
 261.833333333 507 262.166666667 522.833333333 262.5 538.5 c 128
 262.833333333 554.166666667 263.333333333 569.166666667 264 583.5 c 128
 264.666666667 597.833333333 265 610.666666667 265 622 c 1
 259.666666667 616 254.833333333 611 250.5 607 c 128
 244 601 244 601 237.5 595 c 128
 233.166666667 591 228.5 586.833333333 223.5 582.5 c 128
 218.5 578.166666667 212.666666667 573 206 567 c 2
 134 508 l 1
 87 568 l 1
 274 714 l 1
 347 714 l 1
 347 0 l 1
EndSplineSet
Validated: 524289
EndChar

StartChar: two
Encoding: 50 50 105
Width: 550
GlyphClass: 2
Flags: W
LayerCount: 3
Fore
SplineSet
492 0 m 1
 47 0 l 1
 47 76 l 1
 218 262 l 2
 242.666666667 288.666666667 264.5 312.833333333 283.5 334.5 c 128
 302.5 356.166666667 318.833333333 377.5 332.5 398.5 c 128
 346.166666667 419.5 356.5 440.5 363.5 461.5 c 128
 370.5 482.5 374 505.333333333 374 530 c 0
 374 549.333333333 371.166666667 566.333333333 365.5 581 c 128
 359.833333333 595.666666667 352 608 342 618 c 128
 332 628 320 635.666666667 306 641 c 128
 292 646.333333333 276.333333333 649 259 649 c 0
 228.333333333 649 200.5 642.666666667 175.5 630 c 128
 150.5 617.333333333 126.666666667 601.333333333 104 582 c 1
 54 640 l 1
 67.3333333333 652 81.5 663 96.5 673 c 128
 111.5 683 127.5 691.833333333 144.5 699.5 c 128
 161.5 707.166666667 179.666666667 713.166666667 199 717.5 c 128
 218.333333333 721.833333333 238.666666667 724 260 724 c 0
 291.333333333 724 319.5 719.666666667 344.5 711 c 128
 369.5 702.333333333 390.833333333 689.666666667 408.5 673 c 128
 426.166666667 656.333333333 439.833333333 636.333333333 449.5 613 c 128
 459.166666667 589.666666667 464 563 464 533 c 0
 464 505 459.666666667 478.666666667 451 454 c 128
 442.333333333 429.333333333 430.5 404.833333333 415.5 380.5 c 128
 400.5 356.166666667 382.5 331.833333333 361.5 307.5 c 128
 340.5 283.166666667 317.666666667 257.666666667 293 231 c 2
 156 85 l 1
 156 81 l 1
 492 81 l 1
 492 0 l 1
EndSplineSet
Validated: 524289
EndChar

StartChar: three
Encoding: 51 51 106
Width: 550
GlyphClass: 2
Flags: W
LayerCount: 3
Fore
SplineSet
469 547 m 0
 469 523 465.333333333 501.333333333 458 482 c 128
 450.666666667 462.666666667 440.166666667 445.833333333 426.5 431.5 c 128
 412.833333333 417.166666667 396.666666667 405.333333333 378 396 c 128
 359.333333333 386.666666667 338.333333333 380 315 376 c 1
 315 373 l 1
 372.333333333 365.666666667 416 347.333333333 446 318 c 128
 476 288.666666667 491 250.333333333 491 203 c 0
 491 171.666666667 485.666666667 143 475 117 c 128
 464.333333333 91 448.333333333 68.5 427 49.5 c 128
 405.666666667 30.5 378.5 15.8333333333 345.5 5.5 c 128
 312.5 -4.83333333333 273.666666667 -10 229 -10 c 0
 193.666666667 -10 160.333333333 -7.16666666667 129 -1.5 c 128
 97.6666666667 4.16666666667 68 14.3333333333 40 29 c 1
 40 112 l 1
 68 97.3333333333 98.6666666667 85.8333333333 132 77.5 c 128
 165.333333333 69.1666666667 197 65 227 65 c 256
 257 65 282.833333333 68.1666666667 304.5 74.5 c 128
 326.166666667 80.8333333333 344.166666667 90.1666666667 358.5 102.5 c 128
 372.833333333 114.833333333 383.333333333 129.666666667 390 147 c 128
 396.666666667 164.333333333 400 184 400 206 c 256
 400 228 395.666666667 247 387 263 c 128
 378.333333333 279 366 292 350 302 c 128
 334 312 314.5 319.5 291.5 324.5 c 128
 268.5 329.5 242.666666667 332 214 332 c 2
 149 332 l 1
 149 406 l 1
 214 406 l 2
 240.666666667 406 264.166666667 409.166666667 284.5 415.5 c 128
 304.833333333 421.833333333 321.833333333 431 335.5 443 c 128
 349.166666667 455 359.666666667 469.333333333 367 486 c 128
 374.333333333 502.666666667 378 521 378 541 c 0
 378 557.666666667 375 572.666666667 369 586 c 128
 363 599.333333333 354.666666667 610.666666667 344 620 c 128
 333.333333333 629.333333333 320.5 636.5 305.5 641.5 c 128
 290.5 646.5 274 649 256 649 c 0
 221.333333333 649 190.666666667 643.5 164 632.5 c 128
 137.333333333 621.5 112 607.333333333 88 590 c 1
 43 651 l 1
 55.6666666667 661 69.5 670.333333333 84.5 679 c 128
 99.5 687.666666667 116 695.333333333 134 702 c 128
 152 708.666666667 171.166666667 714 191.5 718 c 128
 211.833333333 722 233.333333333 724 256 724 c 0
 291.333333333 724 322.166666667 719.666666667 348.5 711 c 128
 374.833333333 702.333333333 397 690 415 674 c 128
 433 658 446.5 639.333333333 455.5 618 c 128
 464.5 596.666666667 469 573 469 547 c 0
EndSplineSet
Validated: 524289
EndChar

StartChar: four
Encoding: 52 52 107
Width: 550
GlyphClass: 2
Flags: W
LayerCount: 3
Fore
SplineSet
531 160 m 1
 427 160 l 1
 427 0 l 1
 341 0 l 1
 341 160 l 1
 11 160 l 1
 11 238 l 1
 335 718 l 1
 427 718 l 1
 427 241 l 1
 531 241 l 1
 531 160 l 1
341 241 m 1
 341 415 l 2
 341 433 341.166666667 452 341.5 472 c 128
 341.833333333 492 342.333333333 511.666666667 343 531 c 128
 343.666666667 550.333333333 344.5 568.166666667 345.5 584.5 c 128
 346.5 600.833333333 347 614.666666667 347 626 c 1
 343 626 l 1
 341 619.333333333 338.166666667 612 334.5 604 c 128
 330.833333333 596 327 588 323 580 c 128
 319 572 314.833333333 564.333333333 310.5 557 c 128
 306.166666667 549.666666667 302.333333333 543.333333333 299 538 c 2
 98 241 l 1
 341 241 l 1
EndSplineSet
Validated: 524289
EndChar

StartChar: five
Encoding: 53 53 108
Width: 550
GlyphClass: 2
Flags: W
LayerCount: 3
Fore
SplineSet
266 438 m 0
 298 438 328 433.5 356 424.5 c 128
 384 415.5 408.333333333 402.166666667 429 384.5 c 128
 449.666666667 366.833333333 465.833333333 345 477.5 319 c 128
 489.166666667 293 495 263 495 229 c 0
 495 191.666666667 489.5 158.166666667 478.5 128.5 c 128
 467.5 98.8333333333 451 73.8333333333 429 53.5 c 128
 407 33.1666666667 380 17.5 348 6.5 c 128
 316 -4.5 279.333333333 -10 238 -10 c 0
 221.333333333 -10 205 -9.16666666667 189 -7.5 c 128
 173 -5.83333333333 157.5 -3.5 142.5 -0.5 c 128
 127.5 2.5 113.333333333 6.5 100 11.5 c 128
 86.6666666667 16.5 74.6666666667 22.3333333333 64 29 c 1
 64 113 l 1
 74.6666666667 105.666666667 87.3333333333 99 102 93 c 128
 116.666666667 87 131.833333333 82 147.5 78 c 128
 163.166666667 74 179.166666667 71 195.5 69 c 128
 211.833333333 67 226.666666667 66 240 66 c 0
 266 66 289 69 309 75 c 128
 329 81 346 90.3333333333 360 103 c 128
 374 115.666666667 384.833333333 131.666666667 392.5 151 c 128
 400.166666667 170.333333333 404 193 404 219 c 0
 404 265.666666667 389.666666667 301.333333333 361 326 c 128
 332.333333333 350.666666667 290.666666667 363 236 363 c 0
 227.333333333 363 217.833333333 362.5 207.5 361.5 c 128
 197.166666667 360.5 186.833333333 359.333333333 176.5 358 c 128
 166.166666667 356.666666667 156.333333333 355.333333333 147 354 c 128
 137.666666667 352.666666667 129.666666667 351.333333333 123 350 c 1
 79 378 l 1
 106 714 l 1
 443 714 l 1
 443 633 l 1
 183 633 l 1
 164 428 l 1
 174.666666667 430 188.5 432.166666667 205.5 434.5 c 128
 222.5 436.833333333 242.666666667 438 266 438 c 0
EndSplineSet
Validated: 524289
EndChar

StartChar: six
Encoding: 54 54 109
Width: 550
GlyphClass: 2
Flags: W
LayerCount: 3
Fore
SplineSet
55 305 m 0
 55 339 56.6666666667 373 60 407 c 128
 63.3333333333 441 69.3333333333 473.5 78 504.5 c 128
 86.6666666667 535.5 98.5 564.333333333 113.5 591 c 128
 128.5 617.666666667 147.666666667 640.833333333 171 660.5 c 128
 194.333333333 680.166666667 222 695.666666667 254 707 c 128
 286 718.333333333 323.666666667 724 367 724 c 0
 373 724 379.833333333 723.833333333 387.5 723.5 c 128
 395.166666667 723.166666667 402.833333333 722.666666667 410.5 722 c 128
 418.166666667 721.333333333 425.5 720.333333333 432.5 719 c 128
 439.5 717.666666667 445.666666667 716.333333333 451 715 c 1
 451 639 l 1
 439.666666667 643 426.833333333 646 412.5 648 c 128
 398.166666667 650 384 651 370 651 c 0
 340.666666667 651 314.833333333 647.5 292.5 640.5 c 128
 270.166666667 633.5 250.833333333 623.666666667 234.5 611 c 128
 218.166666667 598.333333333 204.666666667 583.166666667 194 565.5 c 128
 183.333333333 547.833333333 174.5 528.333333333 167.5 507 c 128
 160.5 485.666666667 155.333333333 463 152 439 c 128
 148.666666667 415 146.666666667 390 146 364 c 1
 152 364 l 1
 158.666666667 376 166.5 387 175.5 397 c 128
 184.5 407 195.333333333 415.666666667 208 423 c 128
 220.666666667 430.333333333 234.666666667 436.166666667 250 440.5 c 128
 265.333333333 444.833333333 282.666666667 447 302 447 c 0
 332.666666667 447 360.5 442.166666667 385.5 432.5 c 128
 410.5 422.833333333 431.833333333 408.666666667 449.5 390 c 128
 467.166666667 371.333333333 480.833333333 348.666666667 490.5 322 c 128
 500.166666667 295.333333333 505 264.666666667 505 230 c 0
 505 192.666666667 500 159.166666667 490 129.5 c 128
 480 99.8333333333 465.5 74.6666666667 446.5 54 c 128
 427.5 33.3333333333 404.666666667 17.5 378 6.5 c 128
 351.333333333 -4.5 321.333333333 -10 288 -10 c 0
 255.333333333 -10 224.833333333 -3.66666666667 196.5 9 c 128
 168.166666667 21.6666666667 143.5 41 122.5 67 c 128
 101.5 93 85 125.666666667 73 165 c 128
 61 204.333333333 55 251 55 305 c 0
287 65 m 0
 306.333333333 65 324.166666667 68.3333333333 340.5 75 c 128
 356.833333333 81.6666666667 370.833333333 91.6666666667 382.5 105 c 128
 394.166666667 118.333333333 403.166666667 135.5 409.5 156.5 c 128
 415.833333333 177.5 419 202 419 230 c 0
 419 252.666666667 416.333333333 273 411 291 c 128
 405.666666667 309 397.666666667 324.333333333 387 337 c 128
 376.333333333 349.666666667 362.833333333 359.5 346.5 366.5 c 128
 330.166666667 373.5 311.333333333 377 290 377 c 0
 268 377 248 373.166666667 230 365.5 c 128
 212 357.833333333 196.666666667 347.833333333 184 335.5 c 128
 171.333333333 323.166666667 161.5 309.333333333 154.5 294 c 128
 147.5 278.666666667 144 263 144 247 c 0
 144 225 147 203.166666667 153 181.5 c 128
 159 159.833333333 168 140.5 180 123.5 c 128
 192 106.5 206.833333333 92.5 224.5 81.5 c 128
 242.166666667 70.5 263 65 287 65 c 0
EndSplineSet
Validated: 524289
EndChar

StartChar: seven
Encoding: 55 55 110
Width: 550
GlyphClass: 2
Flags: W
LayerCount: 3
Fore
SplineSet
137 0 m 1
 412 633 l 1
 44 633 l 1
 44 714 l 1
 503 714 l 1
 503 643 l 1
 232 0 l 1
 137 0 l 1
EndSplineSet
Validated: 1
EndChar

StartChar: eight
Encoding: 56 56 111
Width: 550
GlyphClass: 2
Flags: W
LayerCount: 3
Fore
SplineSet
276 725 m 0
 303.333333333 725 329.166666667 721.5 353.5 714.5 c 128
 377.833333333 707.5 399.166666667 696.833333333 417.5 682.5 c 128
 435.833333333 668.166666667 450.333333333 650.166666667 461 628.5 c 128
 471.666666667 606.833333333 477 581.666666667 477 553 c 0
 477 531 473.833333333 511.333333333 467.5 494 c 128
 461.166666667 476.666666667 452.166666667 460.833333333 440.5 446.5 c 128
 428.833333333 432.166666667 415.166666667 419.5 399.5 408.5 c 128
 383.833333333 397.5 367 387.333333333 349 378 c 1
 367.666666667 368 386.166666667 356.833333333 404.5 344.5 c 128
 422.833333333 332.166666667 439 318.166666667 453 302.5 c 128
 467 286.833333333 478.333333333 269.5 487 250.5 c 128
 495.666666667 231.5 500 210 500 186 c 0
 500 156 494.5 128.833333333 483.5 104.5 c 128
 472.5 80.1666666667 457.166666667 59.6666666667 437.5 43 c 128
 417.833333333 26.3333333333 394.333333333 13.3333333333 367 4 c 128
 339.666666667 -5.33333333333 309.333333333 -10 276 -10 c 0
 240 -10 208.166666667 -5.5 180.5 3.5 c 128
 152.833333333 12.5 129.5 25.1666666667 110.5 41.5 c 128
 91.5 57.8333333333 77 77.8333333333 67 101.5 c 128
 57 125.166666667 52 152 52 182 c 0
 52 206.666666667 55.6666666667 228.666666667 63 248 c 128
 70.3333333333 267.333333333 80.1666666667 284.833333333 92.5 300.5 c 128
 104.833333333 316.166666667 119.5 330 136.5 342 c 128
 153.5 354 171.333333333 364.666666667 190 374 c 1
 174 384 159 395 145 407 c 128
 131 419 118.833333333 432.333333333 108.5 447 c 128
 98.1666666667 461.666666667 90 477.833333333 84 495.5 c 128
 78 513.166666667 75 532.666666667 75 554 c 0
 75 582 80.5 606.833333333 91.5 628.5 c 128
 102.5 650.166666667 117.333333333 668.166666667 136 682.5 c 128
 154.666666667 696.833333333 176 707.5 200 714.5 c 128
 224 721.5 249.333333333 725 276 725 c 0
139 181 m 0
 139 163.666666667 141.666666667 147.833333333 147 133.5 c 128
 152.333333333 119.166666667 160.5 106.833333333 171.5 96.5 c 128
 182.5 86.1666666667 196.5 78.1666666667 213.5 72.5 c 128
 230.5 66.8333333333 250.666666667 64 274 64 c 0
 296.666666667 64 316.666666667 66.8333333333 334 72.5 c 128
 351.333333333 78.1666666667 366 86.3333333333 378 97 c 128
 390 107.666666667 398.833333333 120.5 404.5 135.5 c 128
 410.166666667 150.5 413 167 413 185 c 0
 413 201.666666667 409.833333333 216.833333333 403.5 230.5 c 128
 397.166666667 244.166666667 388 257 376 269 c 128
 364 281 349.833333333 292.166666667 333.5 302.5 c 128
 317.166666667 312.833333333 298.666666667 323 278 333 c 2
 263 340 l 1
 221.666666667 320.666666667 190.666666667 298.333333333 170 273 c 128
 149.333333333 247.666666667 139 217 139 181 c 0
275 651 m 0
 240.333333333 651 212.833333333 642.333333333 192.5 625 c 128
 172.166666667 607.666666667 162 582.666666667 162 550 c 0
 162 531.333333333 164.833333333 515.333333333 170.5 502 c 128
 176.166666667 488.666666667 184 476.833333333 194 466.5 c 128
 204 456.166666667 216.166666667 446.833333333 230.5 438.5 c 128
 244.833333333 430.166666667 260.333333333 422 277 414 c 1
 292.333333333 421.333333333 307 429.166666667 321 437.5 c 128
 335 445.833333333 347.166666667 455.333333333 357.5 466 c 128
 367.833333333 476.666666667 375.833333333 488.833333333 381.5 502.5 c 128
 387.166666667 516.166666667 390 532 390 550 c 0
 390 582.666666667 379.833333333 607.666666667 359.5 625 c 128
 339.166666667 642.333333333 311 651 275 651 c 0
EndSplineSet
Validated: 524289
EndChar

StartChar: nine
Encoding: 57 57 112
Width: 550
GlyphClass: 2
Flags: W
LayerCount: 3
Fore
SplineSet
502 409 m 0
 502 375 500.333333333 341 497 307 c 128
 493.666666667 273 487.666666667 240.5 479 209.5 c 128
 470.333333333 178.5 458.5 149.666666667 443.5 123 c 128
 428.5 96.3333333333 409.5 73.1666666667 386.5 53.5 c 128
 363.5 33.8333333333 335.833333333 18.3333333333 303.5 7 c 128
 271.166666667 -4.33333333333 233.333333333 -10 190 -10 c 0
 184 -10 177.166666667 -9.83333333333 169.5 -9.5 c 128
 161.833333333 -9.16666666667 154.333333333 -8.5 147 -7.5 c 128
 136 -6 136 -6 125 -4.5 c 128
 117.666666667 -3.5 111.333333333 -2.33333333333 106 -1 c 1
 106 75 l 1
 117.333333333 71 130.166666667 68 144.5 66 c 128
 158.833333333 64 173 63 187 63 c 0
 231 63 267.166666667 70.6666666667 295.5 86 c 128
 323.833333333 101.333333333 346.333333333 122.166666667 363 148.5 c 128
 379.666666667 174.833333333 391.5 205.333333333 398.5 240 c 128
 405.5 274.666666667 409.666666667 311.333333333 411 350 c 1
 405 350 l 1
 398.333333333 338 390.5 327 381.5 317 c 128
 372.5 307 361.833333333 298.333333333 349.5 291 c 128
 337.166666667 283.666666667 323.166666667 277.833333333 307.5 273.5 c 128
 291.833333333 269.166666667 274.333333333 267 255 267 c 0
 224.333333333 267 196.333333333 271.833333333 171 281.5 c 128
 145.666666667 291.166666667 124.333333333 305.333333333 107 324 c 128
 89.6666666667 342.666666667 76.1666666667 365.333333333 66.5 392 c 128
 56.8333333333 418.666666667 52 449.333333333 52 484 c 0
 52 521.333333333 57.1666666667 554.833333333 67.5 584.5 c 128
 77.8333333333 614.166666667 92.3333333333 639.333333333 111 660 c 128
 129.666666667 680.666666667 152.333333333 696.5 179 707.5 c 128
 205.666666667 718.5 235.666666667 724 269 724 c 0
 301.666666667 724 332.166666667 717.666666667 360.5 705 c 128
 388.833333333 692.333333333 413.5 673 434.5 647 c 128
 455.5 621 472 588.166666667 484 548.5 c 128
 496 508.833333333 502 462.333333333 502 409 c 0
270 649 m 0
 250.666666667 649 232.833333333 645.666666667 216.5 639 c 128
 200.166666667 632.333333333 186.166666667 622.166666667 174.5 608.5 c 128
 162.833333333 594.833333333 153.833333333 577.666666667 147.5 557 c 128
 141.166666667 536.333333333 138 512 138 484 c 0
 138 461.333333333 140.666666667 441 146 423 c 128
 151.333333333 405 159.5 389.5 170.5 376.5 c 128
 181.5 363.5 195 353.666666667 211 347 c 128
 227 340.333333333 245.666666667 337 267 337 c 0
 289 337 309 340.833333333 327 348.5 c 128
 345 356.166666667 360.333333333 366 373 378 c 128
 385.666666667 390 395.5 403.833333333 402.5 419.5 c 128
 409.5 435.166666667 413 451 413 467 c 0
 413 489 410 510.666666667 404 532 c 128
 398 553.333333333 389 572.833333333 377 590.5 c 128
 365 608.166666667 350.166666667 622.333333333 332.5 633 c 128
 314.833333333 643.666666667 294 649 270 649 c 0
EndSplineSet
Validated: 524289
EndChar

StartChar: colon
Encoding: 58 58 113
Width: 268
GlyphClass: 2
Flags: W
LayerCount: 3
Fore
SplineSet
72 54 m 0
 72 66.6666666667 73.6666666667 77.3333333333 77 86 c 128
 80.3333333333 94.6666666667 84.6666666667 101.666666667 90 107 c 128
 95.3333333333 112.333333333 101.833333333 116.166666667 109.5 118.5 c 128
 117.166666667 120.833333333 125.333333333 122 134 122 c 256
 142.666666667 122 150.666666667 120.833333333 158 118.5 c 128
 165.333333333 116.166666667 171.833333333 112.333333333 177.5 107 c 128
 183.166666667 101.666666667 187.666666667 94.6666666667 191 86 c 128
 194.333333333 77.3333333333 196 66.6666666667 196 54 c 0
 196 42 194.333333333 31.6666666667 191 23 c 128
 187.666666667 14.3333333333 183.166666667 7.33333333333 177.5 2 c 128
 171.833333333 -3.33333333333 165.166666667 -7.33333333333 157.5 -10 c 128
 149.833333333 -12.6666666667 142 -14 134 -14 c 0
 125.333333333 -14 117.166666667 -12.6666666667 109.5 -10 c 128
 101.833333333 -7.33333333333 95.3333333333 -3.33333333333 90 2 c 128
 84.6666666667 7.33333333333 80.3333333333 14.3333333333 77 23 c 128
 73.6666666667 31.6666666667 72 42 72 54 c 0
72 482 m 0
 72 494.666666667 73.6666666667 505.333333333 77 514 c 128
 80.3333333333 522.666666667 84.6666666667 529.666666667 90 535 c 128
 95.3333333333 540.333333333 101.833333333 544.166666667 109.5 546.5 c 128
 117.166666667 548.833333333 125.333333333 550 134 550 c 256
 142.666666667 550 150.666666667 548.833333333 158 546.5 c 128
 165.333333333 544.166666667 171.833333333 540.333333333 177.5 535 c 128
 183.166666667 529.666666667 187.666666667 522.666666667 191 514 c 128
 194.333333333 505.333333333 196 494.666666667 196 482 c 0
 196 470 194.333333333 459.666666667 191 451 c 128
 187.666666667 442.333333333 183.166666667 435.333333333 177.5 430 c 128
 171.833333333 424.666666667 165.166666667 420.666666667 157.5 418 c 128
 149.833333333 415.333333333 142 414 134 414 c 0
 125.333333333 414 117.166666667 415.333333333 109.5 418 c 128
 101.833333333 420.666666667 95.3333333333 424.666666667 90 430 c 128
 84.6666666667 435.333333333 80.3333333333 442.333333333 77 451 c 128
 73.6666666667 459.666666667 72 470 72 482 c 0
EndSplineSet
Validated: 524289
EndChar

StartChar: semicolon
Encoding: 59 59 114
Width: 268
GlyphClass: 2
Flags: W
LayerCount: 3
Fore
SplineSet
177 116 m 1
 184 105 l 1
 179.333333333 87.6666666667 173.833333333 69 167.5 49 c 128
 161.166666667 29 154.166666667 8.83333333333 146.5 -11.5 c 128
 138.833333333 -31.8333333333 130.833333333 -52 122.5 -72 c 128
 114.166666667 -92 106 -111 98 -129 c 1
 31 -129 l 1
 35.6666666667 -109 40.3333333333 -88.3333333333 45 -67 c 128
 49.6666666667 -45.6666666667 54.1666666667 -24.3333333333 58.5 -3 c 128
 62.8333333333 18.3333333333 66.8333333333 39.1666666667 70.5 59.5 c 128
 74.1666666667 79.8333333333 77.3333333333 98.6666666667 80 116 c 1
 177 116 l 1
72 482 m 0
 72 494.666666667 73.6666666667 505.333333333 77 514 c 128
 80.3333333333 522.666666667 84.6666666667 529.666666667 90 535 c 128
 95.3333333333 540.333333333 101.833333333 544.166666667 109.5 546.5 c 128
 117.166666667 548.833333333 125.333333333 550 134 550 c 256
 142.666666667 550 150.666666667 548.833333333 158 546.5 c 128
 165.333333333 544.166666667 171.833333333 540.333333333 177.5 535 c 128
 183.166666667 529.666666667 187.666666667 522.666666667 191 514 c 128
 194.333333333 505.333333333 196 494.666666667 196 482 c 0
 196 470 194.333333333 459.666666667 191 451 c 128
 187.666666667 442.333333333 183.166666667 435.333333333 177.5 430 c 128
 171.833333333 424.666666667 165.166666667 420.666666667 157.5 418 c 128
 149.833333333 415.333333333 142 414 134 414 c 0
 125.333333333 414 117.166666667 415.333333333 109.5 418 c 128
 101.833333333 420.666666667 95.3333333333 424.666666667 90 430 c 128
 84.6666666667 435.333333333 80.3333333333 442.333333333 77 451 c 128
 73.6666666667 459.666666667 72 470 72 482 c 0
EndSplineSet
Validated: 524289
EndChar

StartChar: less
Encoding: 60 60 115
Width: 550
GlyphClass: 2
Flags: W
LayerCount: 3
Fore
SplineSet
501 116 m 1
 50 323 l 1
 50 373 l 1
 501 608 l 1
 501 530 l 1
 142 352 l 1
 501 195 l 1
 501 116 l 1
EndSplineSet
Validated: 1
EndChar

StartChar: equal
Encoding: 61 61 116
Width: 550
GlyphClass: 2
Flags: W
LayerCount: 3
Fore
SplineSet
50 416 m 1
 50 489 l 1
 501 489 l 1
 501 416 l 1
 50 416 l 1
50 216 m 1
 50 289 l 1
 501 289 l 1
 501 216 l 1
 50 216 l 1
EndSplineSet
Validated: 1
EndChar

StartChar: greater
Encoding: 62 62 117
Width: 550
GlyphClass: 2
Flags: W
LayerCount: 3
Fore
SplineSet
50 195 m 1
 409 352 l 1
 50 530 l 1
 50 608 l 1
 501 373 l 1
 501 323 l 1
 50 116 l 1
 50 195 l 1
EndSplineSet
Validated: 1
EndChar

StartChar: question
Encoding: 63 63 118
Width: 425
GlyphClass: 2
Flags: W
LayerCount: 3
Fore
SplineSet
137 202 m 1
 137 220 l 2
 137 238.666666667 138.333333333 255.5 141 270.5 c 128
 143.666666667 285.5 148.166666667 299.5 154.5 312.5 c 128
 160.833333333 325.5 169.333333333 338.333333333 180 351 c 128
 190.666666667 363.666666667 204 376.666666667 220 390 c 0
 235.333333333 403.333333333 248.666666667 415.5 260 426.5 c 128
 271.333333333 437.5 280.5 448.666666667 287.5 460 c 128
 294.5 471.333333333 299.666666667 483.333333333 303 496 c 128
 306.333333333 508.666666667 308 523.666666667 308 541 c 0
 308 556.333333333 305.5 570.5 300.5 583.5 c 128
 295.5 596.5 288.5 607.666666667 279.5 617 c 128
 270.5 626.333333333 259 633.5 245 638.5 c 128
 231 643.5 215 646 197 646 c 0
 169.666666667 646 143.833333333 641.833333333 119.5 633.5 c 128
 95.1666666667 625.166666667 71.6666666667 615.333333333 49 604 c 1
 18 675 l 1
 44.6666666667 689 73.1666666667 700.666666667 103.5 710 c 128
 133.833333333 719.333333333 165 724 197 724 c 0
 227 724 254.166666667 719.833333333 278.5 711.5 c 128
 302.833333333 703.166666667 323.5 691.166666667 340.5 675.5 c 128
 357.5 659.833333333 370.5 640.666666667 379.5 618 c 128
 388.5 595.333333333 393 570 393 542 c 0
 393 520 390.833333333 500.5 386.5 483.5 c 128
 382.166666667 466.5 375.666666667 450.666666667 367 436 c 128
 358.333333333 421.333333333 347.333333333 407.166666667 334 393.5 c 128
 320.666666667 379.833333333 305.333333333 365.333333333 288 350 c 0
 271.333333333 335.333333333 257.5 322.5 246.5 311.5 c 128
 235.5 300.5 227 290 221 280 c 128
 215 270 210.833333333 259.5 208.5 248.5 c 128
 206.166666667 237.5 205 225 205 211 c 2
 205 202 l 1
 137 202 l 1
114 54 m 0
 114 66.6666666667 115.666666667 77.3333333333 119 86 c 128
 122.333333333 94.6666666667 126.666666667 101.666666667 132 107 c 128
 137.333333333 112.333333333 143.833333333 116.166666667 151.5 118.5 c 128
 159.166666667 120.833333333 167.333333333 122 176 122 c 256
 184.666666667 122 192.666666667 120.833333333 200 118.5 c 128
 207.333333333 116.166666667 213.833333333 112.333333333 219.5 107 c 128
 225.166666667 101.666666667 229.666666667 94.6666666667 233 86 c 128
 236.333333333 77.3333333333 238 66.6666666667 238 54 c 0
 238 42 236.333333333 31.6666666667 233 23 c 128
 229.666666667 14.3333333333 225.166666667 7.33333333333 219.5 2 c 128
 213.833333333 -3.33333333333 207.166666667 -7.33333333333 199.5 -10 c 128
 191.833333333 -12.6666666667 184 -14 176 -14 c 0
 167.333333333 -14 159.166666667 -12.6666666667 151.5 -10 c 128
 143.833333333 -7.33333333333 137.333333333 -3.33333333333 132 2 c 128
 126.666666667 7.33333333333 122.333333333 14.3333333333 119 23 c 128
 115.666666667 31.6666666667 114 42 114 54 c 0
EndSplineSet
Validated: 524289
EndChar

StartChar: L
Encoding: 76 76 119
Width: 491
GlyphClass: 2
Flags: W
LayerCount: 3
Fore
SplineSet
97 0 m 1
 97 714 l 1
 188 714 l 1
 188 81 l 1
 468 81 l 1
 468 0 l 1
 97 0 l 1
EndSplineSet
Validated: 1
EndChar

StartChar: S
Encoding: 83 83 120
Width: 519
GlyphClass: 2
Flags: W
LayerCount: 3
Fore
SplineSet
473 191 m 0
 473 159.666666667 467.333333333 131.5 456 106.5 c 128
 444.666666667 81.5 428.666666667 60.3333333333 408 43 c 128
 387.333333333 25.6666666667 362 12.5 332 3.5 c 128
 302 -5.5 268.333333333 -10 231 -10 c 0
 195 -10 161.333333333 -7.16666666667 130 -1.5 c 128
 98.6666666667 4.16666666667 72.3333333333 12.6666666667 51 24 c 1
 51 111 l 1
 62.3333333333 105.666666667 75 100.5 89 95.5 c 128
 103 90.5 117.833333333 86 133.5 82 c 128
 149.166666667 78 165.333333333 74.8333333333 182 72.5 c 128
 198.666666667 70.1666666667 215 69 231 69 c 0
 283 69 321.5 78.6666666667 346.5 98 c 128
 371.5 117.333333333 384 145.333333333 384 182 c 0
 384 199.333333333 381.666666667 214.666666667 377 228 c 128
 372.333333333 241.333333333 364 253.333333333 352 264 c 128
 340 274.666666667 324 285.166666667 304 295.5 c 128
 284 305.833333333 259 317 229 329 c 0
 200.333333333 340.333333333 175.333333333 352.833333333 154 366.5 c 128
 132.666666667 380.166666667 115 395.5 101 412.5 c 128
 87 429.5 76.6666666667 448.666666667 70 470 c 128
 63.3333333333 491.333333333 60 515.666666667 60 543 c 0
 60 571.666666667 65.1666666667 597.166666667 75.5 619.5 c 128
 85.8333333333 641.833333333 100.5 660.833333333 119.5 676.5 c 128
 138.5 692.166666667 161.166666667 704 187.5 712 c 128
 213.833333333 720 242.666666667 724 274 724 c 0
 312.666666667 724 347.5 720.333333333 378.5 713 c 128
 409.5 705.666666667 437 696.333333333 461 685 c 1
 428 609 l 1
 406.666666667 618.333333333 382.666666667 626.5 356 633.5 c 128
 329.333333333 640.5 301.666666667 644 273 644 c 0
 233 644 202.166666667 634.833333333 180.5 616.5 c 128
 158.833333333 598.166666667 148 573.333333333 148 542 c 0
 148 523.333333333 150.5 507.333333333 155.5 494 c 128
 160.5 480.666666667 168.666666667 468.5 180 457.5 c 128
 191.333333333 446.5 206.333333333 436.166666667 225 426.5 c 128
 243.666666667 416.833333333 266.666666667 406.666666667 294 396 c 0
 323.333333333 384 349.166666667 371.833333333 371.5 359.5 c 128
 393.833333333 347.166666667 412.5 333.166666667 427.5 317.5 c 128
 442.5 301.833333333 453.833333333 283.833333333 461.5 263.5 c 128
 469.166666667 243.166666667 473 219 473 191 c 0
EndSplineSet
Validated: 524289
EndChar

StartChar: T
Encoding: 84 84 121
Width: 519
GlyphClass: 2
Flags: W
LayerCount: 3
Fore
SplineSet
305 0 m 1
 214 0 l 1
 214 634 l 1
 10 634 l 1
 10 714 l 1
 509 714 l 1
 509 634 l 1
 305 634 l 1
 305 0 l 1
EndSplineSet
Validated: 1
EndChar

StartChar: backslash
Encoding: 92 92 122
Width: 373
GlyphClass: 2
Flags: W
LayerCount: 3
Fore
SplineSet
98 714 m 1
 364 0 l 1
 277 0 l 1
 11 714 l 1
 98 714 l 1
EndSplineSet
Validated: 1
EndChar

StartChar: bracketright
Encoding: 93 93 123
Width: 303
GlyphClass: 2
Flags: W
LayerCount: 3
Fore
SplineSet
25 -85 m 1
 134 -85 l 1
 134 641 l 1
 25 641 l 1
 25 714 l 1
 223 714 l 1
 223 -158 l 1
 25 -158 l 1
 25 -85 l 1
EndSplineSet
Validated: 1
EndChar

StartChar: asciicircum
Encoding: 94 94 124
Width: 532
GlyphClass: 2
Flags: W
LayerCount: 3
Fore
SplineSet
20 268 m 1
 244 719 l 1
 294 719 l 1
 512 268 l 1
 434 268 l 1
 269 627 l 1
 99 268 l 1
 20 268 l 1
EndSplineSet
Validated: 1
EndChar

StartChar: underscore
Encoding: 95 95 125
Width: 411
GlyphClass: 2
Flags: W
LayerCount: 3
Fore
SplineSet
413 -158 m 1
 -2 -158 l 1
 -2 -90 l 1
 413 -90 l 1
 413 -158 l 1
EndSplineSet
Validated: 1
EndChar

StartChar: grave
Encoding: 96 96 126
Width: 577
GlyphClass: 2
Flags: W
LayerCount: 3
Fore
SplineSet
384 606 m 1
 325 606 l 1
 313.666666667 615.333333333 301.333333333 626.666666667 288 640 c 128
 274.666666667 653.333333333 261.666666667 667.166666667 249 681.5 c 128
 236.333333333 695.833333333 225 709.666666667 215 723 c 128
 205 736.333333333 197.333333333 747.333333333 192 756 c 1
 192 766 l 1
 299 766 l 1
 304.333333333 754.666666667 310.5 742.5 317.5 729.5 c 128
 324.5 716.5 331.666666667 703.333333333 339 690 c 128
 346.333333333 676.666666667 354 663.833333333 362 651.5 c 128
 370 639.166666667 377.333333333 628.333333333 384 619 c 1
 384 606 l 1
EndSplineSet
Validated: 524289
EndChar

StartChar: c
Encoding: 99 99 127
Width: 462
GlyphClass: 2
Flags: W
LayerCount: 3
Fore
SplineSet
290 -10 m 0
 257.333333333 -10 226.666666667 -4.83333333333 198 5.5 c 128
 169.333333333 15.8333333333 144.333333333 32.1666666667 123 54.5 c 128
 101.666666667 76.8333333333 85 105.333333333 73 140 c 128
 61 174.666666667 55 216.333333333 55 265 c 0
 55 316.333333333 61.1666666667 359.833333333 73.5 395.5 c 128
 85.8333333333 431.166666667 102.833333333 460.166666667 124.5 482.5 c 128
 146.166666667 504.833333333 171.5 521 200.5 531 c 128
 229.5 541 260.666666667 546 294 546 c 0
 319.333333333 546 344.166666667 543.166666667 368.5 537.5 c 128
 392.833333333 531.833333333 413 525 429 517 c 1
 403 442 l 1
 395.666666667 445.333333333 387.333333333 448.5 378 451.5 c 128
 368.666666667 454.5 359.166666667 457.166666667 349.5 459.5 c 128
 339.833333333 461.833333333 330.333333333 463.833333333 321 465.5 c 128
 311.666666667 467.166666667 302.666666667 468 294 468 c 0
 242.666666667 468 205.333333333 451.666666667 182 419 c 128
 158.666666667 386.333333333 147 335.333333333 147 266 c 0
 147 197.333333333 158.833333333 147.166666667 182.5 115.5 c 128
 206.166666667 83.8333333333 242 68 290 68 c 0
 316.666666667 68 340.666666667 71 362 77 c 128
 383.333333333 83 402.666666667 90 420 98 c 1
 420 19 l 1
 402.666666667 9.66666666667 383.833333333 2.5 363.5 -2.5 c 128
 343.166666667 -7.5 318.666666667 -10 290 -10 c 0
EndSplineSet
Validated: 524289
EndChar

StartChar: f
Encoding: 102 102 128
Width: 329
GlyphClass: 2
Flags: W
LayerCount: 3
Fore
SplineSet
318 469 m 1
 198 469 l 1
 198 0 l 1
 109 0 l 1
 109 469 l 1
 14 469 l 1
 14 506 l 1
 109 539 l 1
 109 586 l 2
 109 620.666666667 112.666666667 649.5 120 672.5 c 128
 127.333333333 695.5 137.833333333 713.833333333 151.5 727.5 c 128
 165.166666667 741.166666667 182.166666667 750.833333333 202.5 756.5 c 128
 222.833333333 762.166666667 245.666666667 765 271 765 c 0
 290.333333333 765 308 763.166666667 324 759.5 c 128
 340 755.833333333 354.333333333 751.666666667 367 747 c 1
 344 678 l 1
 334 681.333333333 323 684.5 311 687.5 c 128
 299 690.5 286.666666667 692 274 692 c 256
 260.666666667 692 249.333333333 690.5 240 687.5 c 128
 230.666666667 684.5 223 679 217 671 c 128
 211 663 206.333333333 652.333333333 203 639 c 128
 199.666666667 625.666666667 198 608.333333333 198 587 c 2
 198 536 l 1
 318 536 l 1
 318 469 l 1
EndSplineSet
Validated: 524289
EndChar

StartChar: g
Encoding: 103 103 129
Width: 518
GlyphClass: 2
Flags: W
LayerCount: 3
Fore
SplineSet
498 536 m 1
 498 481 l 1
 402 468 l 1
 411.333333333 456.666666667 419 442 425 424 c 128
 431 406 434 386 434 364 c 0
 434 339.333333333 430.166666667 316.5 422.5 295.5 c 128
 414.833333333 274.5 403.333333333 256.333333333 388 241 c 128
 372.666666667 225.666666667 353.5 213.666666667 330.5 205 c 128
 307.5 196.333333333 281 192 251 192 c 0
 240 192 240 192 229.5 192 c 128
 222.5 192 216.666666667 192.666666667 212 194 c 1
 206.666666667 190.666666667 201.333333333 187 196 183 c 128
 190.666666667 179 185.666666667 174.333333333 181 169 c 128
 176.333333333 163.666666667 172.666666667 157.833333333 170 151.5 c 128
 167.333333333 145.166666667 166 138 166 130 c 0
 166 121.333333333 168 114.333333333 172 109 c 128
 176 103.666666667 181.333333333 99.5 188 96.5 c 128
 194.666666667 93.5 202.5 91.5 211.5 90.5 c 128
 220.5 89.5 230 89 240 89 c 2
 326 89 l 2
 356 89 381.5 85.1666666667 402.5 77.5 c 128
 423.5 69.8333333333 440.666666667 59.5 454 46.5 c 128
 467.333333333 33.5 476.833333333 18.1666666667 482.5 0.5 c 128
 488.166666667 -17.1666666667 491 -36 491 -56 c 0
 491 -84.6666666667 485.666666667 -110.333333333 475 -133 c 128
 464.333333333 -155.666666667 448.166666667 -175 426.5 -191 c 128
 404.833333333 -207 377.333333333 -219.166666667 344 -227.5 c 128
 310.666666667 -235.833333333 271.333333333 -240 226 -240 c 0
 191.333333333 -240 161 -236.666666667 135 -230 c 128
 109 -223.333333333 87.3333333333 -213.5 70 -200.5 c 128
 52.6666666667 -187.5 39.6666666667 -171.666666667 31 -153 c 128
 22.3333333333 -134.333333333 18 -113.666666667 18 -91 c 0
 18 -71.6666666667 21.1666666667 -54.5 27.5 -39.5 c 128
 33.8333333333 -24.5 42.3333333333 -11.6666666667 53 -1 c 128
 63.6666666667 9.66666666667 76.1666666667 18.5 90.5 25.5 c 128
 104.833333333 32.5 119.666666667 37.6666666667 135 41 c 1
 121 47 109.666666667 56.6666666667 101 70 c 128
 92.3333333333 83.3333333333 88 98.6666666667 88 116 c 0
 88 136 93.1666666667 153.166666667 103.5 167.5 c 128
 113.833333333 181.833333333 130.333333333 196 153 210 c 1
 139 216 126.166666667 224.166666667 114.5 234.5 c 128
 102.833333333 244.833333333 93 256.5 85 269.5 c 128
 77 282.5 70.8333333333 296.833333333 66.5 312.5 c 128
 62.1666666667 328.166666667 60 344.333333333 60 361 c 0
 60 389.666666667 64 415.5 72 438.5 c 128
 80 461.5 92 481 108 497 c 128
 124 513 144 525.166666667 168 533.5 c 128
 192 541.833333333 219.666666667 546 251 546 c 0
 263 546 275.5 545.166666667 288.5 543.5 c 128
 301.5 541.833333333 312.333333333 539.333333333 321 536 c 1
 498 536 l 1
102 -88 m 0
 102 -100 104.166666667 -111.166666667 108.5 -121.5 c 128
 112.833333333 -131.833333333 119.833333333 -140.833333333 129.5 -148.5 c 128
 139.166666667 -156.166666667 151.833333333 -162.166666667 167.5 -166.5 c 128
 183.166666667 -170.833333333 202.666666667 -173 226 -173 c 0
 286.666666667 -173 332 -163.666666667 362 -145 c 128
 392 -126.333333333 407 -99.3333333333 407 -64 c 0
 407 -49.3333333333 405.166666667 -37.1666666667 401.5 -27.5 c 128
 397.833333333 -17.8333333333 391.5 -10.3333333333 382.5 -5 c 128
 373.5 0.333333333333 361.666666667 4 347 6 c 128
 332.333333333 8 314.333333333 9 293 9 c 2
 207 9 l 2
 195.666666667 9 183.833333333 7.66666666667 171.5 5 c 128
 159.166666667 2.33333333333 147.833333333 -2.66666666667 137.5 -10 c 128
 127.166666667 -17.3333333333 118.666666667 -27.1666666667 112 -39.5 c 128
 105.333333333 -51.8333333333 102 -68 102 -88 c 0
147 364 m 0
 147 326.666666667 155.833333333 298.833333333 173.5 280.5 c 128
 191.166666667 262.166666667 216 253 248 253 c 0
 280.666666667 253 305.333333333 262 322 280 c 128
 338.666666667 298 347 326.333333333 347 365 c 0
 347 405 338.5 434.5 321.5 453.5 c 128
 304.5 472.5 279.666666667 482 247 482 c 0
 215 482 190.333333333 472.333333333 173 453 c 128
 155.666666667 433.666666667 147 404 147 364 c 0
EndSplineSet
Validated: 524289
EndChar

StartChar: j
Encoding: 106 106 130
Width: 258
GlyphClass: 2
Flags: W
LayerCount: 3
Fore
SplineSet
32 -240 m 0
 16.6666666667 -240 3.83333333333 -238.833333333 -6.5 -236.5 c 128
 -16.8333333333 -234.166666667 -25.6666666667 -231.333333333 -33 -228 c 1
 -33 -156 l 1
 -24.3333333333 -159.333333333 -15.6666666667 -161.833333333 -7 -163.5 c 128
 1.66666666667 -165.166666667 11.6666666667 -166 23 -166 c 0
 31.6666666667 -166 39.8333333333 -164.833333333 47.5 -162.5 c 128
 55.1666666667 -160.166666667 61.8333333333 -155.833333333 67.5 -149.5 c 128
 73.1666666667 -143.166666667 77.5 -134.666666667 80.5 -124 c 128
 83.5 -113.333333333 85 -99.6666666667 85 -83 c 2
 85 536 l 1
 174 536 l 1
 174 -77 l 2
 174 -102.333333333 171.166666667 -125 165.5 -145 c 128
 159.833333333 -165 151.166666667 -182 139.5 -196 c 128
 127.833333333 -210 113.166666667 -220.833333333 95.5 -228.5 c 128
 77.8333333333 -236.166666667 56.6666666667 -240 32 -240 c 0
78 681 m 256
 78 700.333333333 83 714.5 93 723.5 c 128
 103 732.5 115.333333333 737 130 737 c 0
 137.333333333 737 144.166666667 735.833333333 150.5 733.5 c 128
 156.833333333 731.166666667 162.333333333 727.833333333 167 723.5 c 128
 171.666666667 719.166666667 175.333333333 713.5 178 706.5 c 128
 180.666666667 699.5 182 691 182 681 c 0
 182 662.333333333 176.833333333 648.333333333 166.5 639 c 128
 156.166666667 629.666666667 144 625 130 625 c 0
 115.333333333 625 103 629.5 93 638.5 c 128
 83 647.5 78 661.666666667 78 681 c 256
EndSplineSet
Validated: 524289
EndChar

StartChar: k
Encoding: 107 107 131
Width: 496
GlyphClass: 2
Flags: W
LayerCount: 3
Fore
SplineSet
167 277 m 1
 233 360 l 1
 376 536 l 1
 479 536 l 1
 283 304 l 1
 492 0 l 1
 390 0 l 1
 226 246 l 1
 173 206 l 1
 173 0 l 1
 85 0 l 1
 85 760 l 1
 173 760 l 1
 173 411 l 1
 165 277 l 1
 167 277 l 1
EndSplineSet
Validated: 1
EndChar

StartChar: l
Encoding: 108 108 132
Width: 258
GlyphClass: 2
Flags: W
LayerCount: 3
Fore
SplineSet
174 0 m 1
 85 0 l 1
 85 760 l 1
 174 760 l 1
 174 0 l 1
EndSplineSet
Validated: 1
EndChar

StartChar: w
Encoding: 119 119 133
Width: 746
GlyphClass: 2
Flags: W
LayerCount: 3
Fore
SplineSet
492 0 m 1
 410 301 l 2
 408.666666667 307 407 313.666666667 405 321 c 128
 403 328.333333333 401 336 399 344 c 128
 397 352 395 360.166666667 393 368.5 c 128
 391 376.833333333 389 385.333333333 387 394 c 0
 382.333333333 412.666666667 377.666666667 432 373 452 c 1
 370 452 l 1
 365.333333333 431.333333333 361 411.666666667 357 393 c 0
 353.666666667 377 349.833333333 360.333333333 345.5 343 c 128
 341.166666667 325.666666667 337.333333333 311 334 299 c 2
 250 0 l 1
 147 0 l 1
 10 536 l 1
 103 536 l 1
 167 251 l 2
 170.333333333 236.333333333 173.666666667 220.5 177 203.5 c 128
 180.333333333 186.5 183.333333333 169.5 186 152.5 c 128
 188.666666667 135.5 191.166666667 119.666666667 193.5 105 c 128
 195.833333333 90.3333333333 197.666666667 78.3333333333 199 69 c 1
 202 69 l 1
 203.333333333 77.6666666667 205.5 89 208.5 103 c 128
 211.5 117 214.666666667 131.833333333 218 147.5 c 128
 221.333333333 163.166666667 224.833333333 178.833333333 228.5 194.5 c 128
 232.166666667 210.166666667 235.666666667 223.333333333 239 234 c 2
 326 536 l 1
 422 536 l 1
 506 234 l 2
 508.666666667 222.666666667 511.833333333 209.5 515.5 194.5 c 128
 519.166666667 179.5 522.833333333 164.333333333 526.5 149 c 128
 530.166666667 133.666666667 533.5 118.833333333 536.5 104.5 c 128
 539.5 90.1666666667 541.666666667 78.3333333333 543 69 c 1
 546 69 l 1
 546.666666667 77.6666666667 548.166666667 89 550.5 103 c 128
 552.833333333 117 555.333333333 132.5 558 149.5 c 128
 560.666666667 166.5 563.833333333 183.833333333 567.5 201.5 c 128
 571.166666667 219.166666667 574.666666667 235.666666667 578 251 c 2
 645 536 l 1
 736 536 l 1
 597 0 l 1
 492 0 l 1
EndSplineSet
Validated: 524289
EndChar

StartChar: x
Encoding: 120 120 134
Width: 500
GlyphClass: 2
Flags: W
LayerCount: 3
Fore
SplineSet
199 275 m 1
 27 536 l 1
 128 536 l 1
 250 336 l 1
 372 536 l 1
 473 536 l 1
 300 275 l 1
 482 0 l 1
 381 0 l 1
 250 213 l 1
 118 0 l 1
 17 0 l 1
 199 275 l 1
EndSplineSet
Validated: 1
EndChar

StartChar: y
Encoding: 121 121 135
Width: 488
GlyphClass: 2
Flags: W
LayerCount: 3
Fore
SplineSet
5 536 m 1
 97 536 l 1
 202 237 l 2
 206.666666667 223.666666667 211.333333333 209.833333333 216 195.5 c 128
 220.666666667 181.166666667 225 166.833333333 229 152.5 c 128
 233 138.166666667 236.5 124.333333333 239.5 111 c 128
 242.5 97.6666666667 244.666666667 85.3333333333 246 74 c 1
 249 74 l 1
 250.333333333 82 252.833333333 93 256.5 107 c 128
 260.166666667 121 264.166666667 136 268.5 152 c 128
 272.833333333 168 277.5 183.666666667 282.5 199 c 128
 287.5 214.333333333 291.666666667 227.333333333 295 238 c 2
 392 536 l 1
 484 536 l 1
 272 -70 l 2
 262.666666667 -96.6666666667 252.833333333 -120.333333333 242.5 -141 c 128
 232.166666667 -161.666666667 220 -179.333333333 206 -194 c 128
 192 -208.666666667 175.5 -220 156.5 -228 c 128
 137.5 -236 115 -240 89 -240 c 0
 72.3333333333 -240 57.6666666667 -239.166666667 45 -237.5 c 128
 32.3333333333 -235.833333333 21.6666666667 -234 13 -232 c 1
 13 -161 l 1
 19.6666666667 -162.333333333 28.3333333333 -163.666666667 39 -165 c 128
 49.6666666667 -166.333333333 60.6666666667 -167 72 -167 c 0
 87.3333333333 -167 100.666666667 -165.166666667 112 -161.5 c 128
 123.333333333 -157.833333333 133.333333333 -152.333333333 142 -145 c 128
 150.666666667 -137.666666667 158 -128.833333333 164 -118.5 c 128
 170 -108.166666667 175.333333333 -96.3333333333 180 -83 c 2
 208 -5 l 1
 5 536 l 1
EndSplineSet
Validated: 524289
EndChar

StartChar: z
Encoding: 122 122 136
Width: 440
GlyphClass: 2
Flags: W
LayerCount: 3
Fore
SplineSet
401 0 m 1
 40 0 l 1
 40 61 l 1
 302 469 l 1
 56 469 l 1
 56 536 l 1
 392 536 l 1
 392 465 l 1
 136 67 l 1
 401 67 l 1
 401 0 l 1
EndSplineSet
Validated: 1
EndChar

StartChar: braceleft
Encoding: 123 123 137
Width: 354
GlyphClass: 2
Flags: W
LayerCount: 3
Fore
SplineSet
244 -8 m 2
 244 -23.3333333333 246 -36 250 -46 c 128
 254 -56 259.666666667 -63.8333333333 267 -69.5 c 128
 274.333333333 -75.1666666667 283.333333333 -79 294 -81 c 128
 304.666666667 -83 316.333333333 -84.3333333333 329 -85 c 1
 329 -158 l 1
 303.666666667 -158 280.5 -155.333333333 259.5 -150 c 128
 238.5 -144.666666667 220.166666667 -136.166666667 204.5 -124.5 c 128
 188.833333333 -112.833333333 176.666666667 -98 168 -80 c 128
 159.333333333 -62 155 -40.3333333333 155 -15 c 2
 155 148 l 2
 155 181.333333333 144.333333333 205 123 219 c 128
 101.666666667 233 70.6666666667 240 30 240 c 1
 30 316 l 1
 70.6666666667 316 101.666666667 323 123 337 c 128
 144.333333333 351 155 374.666666667 155 408 c 2
 155 571 l 2
 155 596.333333333 159.333333333 618 168 636 c 128
 176.666666667 654 188.833333333 668.666666667 204.5 680 c 128
 220.166666667 691.333333333 238.666666667 699.666666667 260 705 c 128
 281.333333333 710.333333333 304.333333333 713.333333333 329 714 c 1
 329 641 l 1
 315.666666667 641 303.833333333 639.833333333 293.5 637.5 c 128
 283.166666667 635.166666667 274.333333333 631.166666667 267 625.5 c 128
 259.666666667 619.833333333 254 612 250 602 c 128
 246 592 244 579.333333333 244 564 c 2
 244 402 l 2
 244 368 234.333333333 341 215 321 c 128
 195.666666667 301 167.333333333 287.666666667 130 281 c 1
 130 275 l 1
 167.333333333 268.333333333 195.666666667 255.166666667 215 235.5 c 128
 234.333333333 215.833333333 244 188.666666667 244 154 c 2
 244 -8 l 2
EndSplineSet
Validated: 524289
EndChar

StartChar: bar
Encoding: 124 124 138
Width: 550
GlyphClass: 2
Flags: W
LayerCount: 3
Fore
SplineSet
239 760 m 1
 312 760 l 1
 312 -240 l 1
 239 -240 l 1
 239 760 l 1
EndSplineSet
Validated: 1
EndChar

StartChar: braceright
Encoding: 125 125 139
Width: 354
GlyphClass: 2
Flags: W
LayerCount: 3
Fore
SplineSet
110 154 m 2
 110 188.666666667 119.666666667 215.833333333 139 235.5 c 128
 158.333333333 255.166666667 186.666666667 268.333333333 224 275 c 1
 224 281 l 1
 186.666666667 287.666666667 158.333333333 301 139 321 c 128
 119.666666667 341 110 368 110 402 c 2
 110 564 l 2
 110 579.333333333 108 592 104 602 c 128
 100 612 94.3333333333 619.833333333 87 625.5 c 128
 79.6666666667 631.166666667 70.6666666667 635.166666667 60 637.5 c 128
 49.3333333333 639.833333333 37.6666666667 641 25 641 c 1
 25 714 l 1
 50.3333333333 714 73.5 711.166666667 94.5 705.5 c 128
 115.5 699.833333333 133.833333333 691.333333333 149.5 680 c 128
 165.166666667 668.666666667 177.333333333 654 186 636 c 128
 194.666666667 618 199 596.333333333 199 571 c 2
 199 408 l 2
 199 391.333333333 201.666666667 377.166666667 207 365.5 c 128
 212.333333333 353.833333333 220.333333333 344.333333333 231 337 c 128
 241.666666667 329.666666667 254.833333333 324.333333333 270.5 321 c 128
 286.166666667 317.666666667 304 316 324 316 c 1
 324 240 l 1
 283.333333333 240 252.333333333 233 231 219 c 128
 209.666666667 205 199 181.333333333 199 148 c 2
 199 -15 l 2
 199 -40.3333333333 194.666666667 -62 186 -80 c 128
 177.333333333 -98 165.166666667 -112.833333333 149.5 -124.5 c 128
 133.833333333 -136.166666667 115.333333333 -144.666666667 94 -150 c 128
 72.6666666667 -155.333333333 49.6666666667 -158 25 -158 c 1
 25 -85 l 1
 38.3333333333 -85 50.1666666667 -83.8333333333 60.5 -81.5 c 128
 70.8333333333 -79.1666666667 79.6666666667 -75.1666666667 87 -69.5 c 128
 94.3333333333 -63.8333333333 100 -56 104 -46 c 128
 108 -36 110 -23.3333333333 110 -8 c 2
 110 154 l 2
EndSplineSet
Validated: 524289
EndChar

StartChar: asciitilde
Encoding: 126 126 140
Width: 550
GlyphClass: 2
Flags: W
LayerCount: 3
Fore
SplineSet
259 318 m 0
 247 323.333333333 236.5 327.666666667 227.5 331 c 128
 218.5 334.333333333 210.333333333 337.166666667 203 339.5 c 128
 195.666666667 341.833333333 188.666666667 343.333333333 182 344 c 128
 175.333333333 344.666666667 168.333333333 345 161 345 c 0
 151.666666667 345 142.166666667 343.5 132.5 340.5 c 128
 122.833333333 337.5 113.166666667 333.333333333 103.5 328 c 128
 93.8333333333 322.666666667 84.5 316.333333333 75.5 309 c 128
 66.5 301.666666667 58 294 50 286 c 1
 50 365 l 1
 82.6666666667 400.333333333 123 418 171 418 c 0
 180.333333333 418 189 417.666666667 197 417 c 128
 205 416.333333333 213.5 414.833333333 222.5 412.5 c 128
 231.5 410.166666667 241.5 407 252.5 403 c 128
 263.5 399 276.666666667 393.666666667 292 387 c 0
 304 381.666666667 314.5 377.333333333 323.5 374 c 128
 332.5 370.666666667 340.833333333 367.833333333 348.5 365.5 c 128
 356.166666667 363.166666667 363.166666667 361.666666667 369.5 361 c 128
 375.833333333 360.333333333 382.666666667 360 390 360 c 0
 399.333333333 360 408.833333333 361.5 418.5 364.5 c 128
 428.166666667 367.5 437.833333333 371.666666667 447.5 377 c 128
 457.166666667 382.333333333 466.5 388.666666667 475.5 396 c 128
 484.5 403.333333333 493 411 501 419 c 1
 501 340 l 1
 469 304.666666667 428.666666667 287 380 287 c 0
 370.666666667 287 361.833333333 287.5 353.5 288.5 c 128
 345.166666667 289.5 336.5 291 327.5 293 c 128
 318.5 295 308.666666667 298 298 302 c 128
 287.333333333 306 274.333333333 311.333333333 259 318 c 0
EndSplineSet
Validated: 524289
EndChar

